<?xml version="1.0" encoding="UTF-8" standalone="no"?>
<!-- Created with Inkscape (http://www.inkscape.org/) -->

<svg
   xmlns:dc="http://purl.org/dc/elements/1.1/"
   xmlns:cc="http://creativecommons.org/ns#"
   xmlns:rdf="http://www.w3.org/1999/02/22-rdf-syntax-ns#"
   xmlns:svg="http://www.w3.org/2000/svg"
   xmlns="http://www.w3.org/2000/svg"
   xmlns:xlink="http://www.w3.org/1999/xlink"
   xmlns:sodipodi="http://sodipodi.sourceforge.net/DTD/sodipodi-0.dtd"
   xmlns:inkscape="http://www.inkscape.org/namespaces/inkscape"
   id="svg3003"
   version="1.1"
   inkscape:version="0.48.5 r10040"
   width="230"
   height="32"
   sodipodi:docname="InputTab.svg"
   inkscape:export-filename="/Users/minami/iosAppDevelop/MealReport/image/background.png"
   inkscape:export-xdpi="90"
   inkscape:export-ydpi="90">
  <metadata
     id="metadata3009">
    <rdf:RDF>
      <cc:Work
         rdf:about="">
        <dc:format>image/svg+xml</dc:format>
        <dc:type
           rdf:resource="http://purl.org/dc/dcmitype/StillImage" />
        <dc:title></dc:title>
      </cc:Work>
    </rdf:RDF>
  </metadata>
  <defs
     id="defs3007" />
  <sodipodi:namedview
     pagecolor="#ffffff"
     bordercolor="#666666"
     borderopacity="1"
     objecttolerance="10"
     gridtolerance="10"
     guidetolerance="10"
     inkscape:pageopacity="0"
     inkscape:pageshadow="2"
     inkscape:window-width="1322"
     inkscape:window-height="724"
     id="namedview3005"
     showgrid="true"
     inkscape:zoom="0.61357118"
     inkscape:cx="-254.33845"
     inkscape:cy="61.482965"
     inkscape:window-x="44"
     inkscape:window-y="0"
     inkscape:window-maximized="0"
     inkscape:current-layer="svg3003"
     showguides="true"
     inkscape:snap-global="false">
    <inkscape:grid
       type="xygrid"
       id="grid4455" />
  </sodipodi:namedview>
  <g
     id="g4437"
     inkscape:export-filename="/Users/minami/iosAppDevelop/MealReport/image/buttonFrameYellow.png"
     inkscape:export-xdpi="90"
     inkscape:export-ydpi="90">
    <rect
       ry="4.2978177"
       y="10.616369"
       x="317.50827"
       height="42.118618"
       width="197.11861"
       id="rect4233"
       style="fill:#e59829;fill-opacity:1;stroke:#e59829;stroke-width:2.88138247;stroke-miterlimit:4;stroke-opacity:1;stroke-dasharray:none" />
    <g
       transform="matrix(0.41134071,0,0,0.41134071,303.31338,30.530829)"
       id="g4271">
      <rect
         style="fill:#ffffff;fill-opacity:1;stroke:#ffffff;stroke-width:0.51182646;stroke-miterlimit:4;stroke-opacity:1;stroke-dasharray:none"
         id="rect4261"
         width="25"
         height="4.2770014"
         x="320.52084"
         y="-346.59604"
         ry="0"
         transform="matrix(0.70189242,0.71228297,-0.71228297,0.70189242,0,0)" />
      <use
         x="0"
         y="0"
         xlink:href="#rect4261"
         id="use4269"
         transform="matrix(1,0,0,-1,0,5.5664254)"
         width="230"
         height="32" />
    </g>
  </g>
  <g
     id="g4443"
     inkscape:export-filename="/Users/minami/iosAppDevelop/MealReport/image/buttonFrameRed.png"
     inkscape:export-xdpi="90"
     inkscape:export-ydpi="90">
    <rect
       style="fill:#e55529;fill-opacity:1;stroke:#e55529;stroke-width:2.88138247;stroke-miterlimit:4;stroke-opacity:1;stroke-dasharray:none"
       id="rect4285"
       width="197.11861"
       height="42.118618"
       x="316.83258"
       y="-59.46085"
       ry="4.2978177" />
    <g
       id="g4287"
       transform="matrix(0.41134071,0,0,0.41134071,302.6377,-39.54639)">
      <rect
         transform="matrix(0.70189242,0.71228297,-0.71228297,0.70189242,0,0)"
         ry="0"
         y="-346.59604"
         x="320.52084"
         height="4.2770014"
         width="25"
         id="rect4289"
         style="fill:#ffffff;fill-opacity:1;stroke:#ffffff;stroke-width:0.51182646;stroke-miterlimit:4;stroke-opacity:1;stroke-dasharray:none" />
      <use
         height="32"
         width="230"
         transform="matrix(1,0,0,-1,0,5.5664254)"
         id="use4291"
         xlink:href="#rect4261"
         y="0"
         x="0" />
    </g>
  </g>
  <g
     id="g4675"
     inkscape:export-filename="/Users/minami/iosAppDevelop/MealReport/image/buttonFrameBlue.png"
     inkscape:export-xdpi="90"
     inkscape:export-ydpi="90">
    <g
       id="g4427">
      <rect
         ry="4.2978177"
         y="78.859612"
         x="317.50827"
         height="42.118618"
         width="197.11861"
         id="rect4319"
         style="fill:#2940e5;fill-opacity:1;stroke:#283ee6;stroke-width:2.88138247;stroke-miterlimit:4;stroke-opacity:1;stroke-dasharray:none" />
    </g>
    <g
       id="g4321"
       transform="matrix(0.41134071,0,0,0.41134071,303.31338,98.774072)">
      <rect
         transform="matrix(0.70189242,0.71228297,-0.71228297,0.70189242,0,0)"
         ry="0"
         y="-346.59604"
         x="320.52084"
         height="4.2770014"
         width="25"
         id="rect4323"
         style="fill:#ffffff;fill-opacity:1;stroke:#ffffff;stroke-width:0.51182646;stroke-miterlimit:4;stroke-opacity:1;stroke-dasharray:none" />
      <use
         height="32"
         width="230"
         transform="matrix(1,0,0,-1,0,5.5664254)"
         id="use4325"
         xlink:href="#rect4261"
         y="0"
         x="0" />
    </g>
  </g>
  <path
     style="fill:none;stroke:#000000;stroke-width:0.91468453px;stroke-linecap:butt;stroke-linejoin:miter;stroke-opacity:1"
     d="m 787.5081,-495.73042 c 0,33.13679 0,41.42098 12.4263,43.49203 0,24.85258 -2.07105,57.98937 -2.07105,66.27357 0,8.28419 12.42629,8.28419 12.42629,0 0,-8.2842 -2.07104,-41.42099 -2.07104,-66.27357 12.42629,-2.07105 12.42629,-10.35524 12.42629,-43.49203 0,-4.1421 -8.2842,-4.1421 -8.06644,0 -0.21776,8.28419 -0.14518,16.5684 -0.21776,24.85259 0,4.14209 -4.14209,4.14209 -4.14209,0 0,-8.28419 0.002,-16.5684 0.31877,-24.85259 -0.31877,-4.1421 -8.60297,-4.1421 -8.60297,0 0,8.28419 0,16.5684 0,24.85259 0,4.14209 -4.1421,4.14209 -4.1421,0 0,-8.28419 -0.42631,-16.85968 0,-24.85259 0,-4.1421 -8.2842,-4.1421 -8.2842,0 z"
     id="path4526"
     inkscape:connector-curvature="0"
     sodipodi:nodetypes="ccccccccccccccc" />
  <path
     style="fill:none;stroke:#000000;stroke-width:0.90173179px;stroke-linecap:butt;stroke-linejoin:miter;stroke-opacity:1"
     d="m 632.52702,-386.01353 c 0,8.35777 12.53666,8.35777 12.53666,0 0,-8.35778 -2.08944,-41.78888 -2.08944,-66.86219 18.29721,-2.28715 16.40548,-45.96776 -4.17889,-45.96776 -20.58438,0 -22.47611,43.68061 -4.17889,45.96776 0,25.07332 -2.08944,58.50441 -2.08944,66.86219 z"
     id="path4528"
     inkscape:connector-curvature="0"
     sodipodi:nodetypes="cccccc" />
  <g
     id="g5139"
     inkscape:export-filename="/Users/minami/iosAppDevelop/MealReport/image/iconBlack.png"
     inkscape:export-xdpi="90"
     inkscape:export-ydpi="90">
    <rect
       ry="0"
       y="158.59167"
       x="598.13965"
       height="130"
       width="240"
       id="rect4395"
       style="fill:#ffffff;fill-opacity:1;stroke:#ffffff;stroke-width:1;stroke-miterlimit:4;stroke-opacity:1;stroke-dasharray:none" />
    <g
       id="g5132">
      <path
         style="fill:#000000;fill-opacity:1;stroke:#000000;stroke-width:0.390625;stroke-miterlimit:4;stroke-opacity:1;stroke-dasharray:none"
         d="m 635.46537,163.84139 c -6.50632,0.248 -11.32208,6.0345 -13.52539,11.71875 -2.78743,6.17463 -2.28544,13.1753 -1.86277,19.75948 1.15497,6.31722 4.87167,13.44505 11.67722,14.83526 0.47518,1.61953 0.025,4.15717 0.14086,6.09108 -0.24227,20.45706 -1.45941,40.889 -1.81322,61.34056 0.25899,4.10507 5.16643,7.15794 8.94775,5.24902 3.03725,-1.12629 4.51725,-4.44156 4.02493,-7.53172 -0.49497,-21.63874 -2.03092,-43.2688 -1.80326,-64.91701 2.95739,-1.18343 6.38327,-2.7926 8.10547,-5.81055 4.87064,-7.30347 4.71512,-16.78415 3.06398,-25.04883 -1.74494,-7.95961 -7.78484,-16.66753 -16.95557,-15.68604 z"
         id="path4650"
         inkscape:connector-curvature="0" />
      <path
         style="fill:#000000;fill-opacity:1;stroke:#000000;stroke-width:0.390625;stroke-miterlimit:4;stroke-opacity:1;stroke-dasharray:none"
         d="m 811.55183,163.75031 c -2.36614,0.45798 -4.52114,2.54969 -3.81225,5.13898 -0.25384,8.34947 0.14311,16.81845 -0.72876,25.09783 -0.9227,1.77179 -3.24598,-0.1125 -2.80762,-1.64795 -0.52182,-8.70238 0.40789,-17.47899 -0.31738,-26.14746 -1.24534,-2.89665 -5.89542,-3.02196 -7.97119,-0.93995 -1.40179,2.25371 -0.47596,5.24761 -0.86057,7.77584 -0.26911,6.95661 0.33435,14.06385 -0.42117,20.9351 -0.84202,1.79817 -3.47215,0.0772 -2.91593,-1.48921 -0.26528,-8.58361 0.23367,-17.24546 -0.55087,-25.7813 -0.42443,-3.59841 -5.90457,-3.72139 -7.66601,-1.15966 -1.54526,2.61915 -0.45627,5.96198 -0.76304,8.85005 0.30097,8.44 0.12051,16.9699 1.37339,25.32963 0.88445,4.5483 3.47083,9.31829 8.28857,10.47364 2.41522,0.18732 3.23669,1.47253 2.65338,3.88132 -0.17338,21.37039 -1.53746,42.71138 -1.84771,64.07523 0.56025,5.00645 7.83465,7.23328 11.03515,3.29589 2.9912,-1.77053 1.47835,-5.36482 1.71334,-8.16447 -0.54488,-20.77221 -1.6069,-41.52853 -1.94527,-62.30672 4.96842,-0.59112 9.3973,-4.1553 10.52246,-9.10645 2.30722,-9.71907 1.68859,-19.84924 1.9727,-29.78512 -0.19084,-2.63092 0.87409,-6.36607 -2.20463,-7.70266 -0.83351,-0.43174 -1.80184,-0.72171 -2.74659,-0.62256 z"
         id="path4652"
         inkscape:connector-curvature="0" />
      <g
         id="g4876"
         transform="translate(-23.238368,1.5258789e-5)">
        <path
           transform="matrix(4.5916781,0,0,1.5115459,128.76996,657.32266)"
           d="m 143.75,-286.94531 c 0,17.36676 -4.63455,31.44531 -10.35156,31.44531 -5.71701,0 -10.35156,-14.07855 -10.35156,-31.44531 0,-17.36677 4.63455,-31.44531 10.35156,-31.44531 5.71701,0 10.35156,14.07854 10.35156,31.44531 z"
           sodipodi:ry="31.445312"
           sodipodi:rx="10.351562"
           sodipodi:cy="-286.94531"
           sodipodi:cx="133.39844"
           id="path4654"
           style="fill:#ffffff;fill-opacity:1;stroke:#000000;stroke-width:6.4897809;stroke-miterlimit:4;stroke-opacity:1;stroke-dasharray:none"
           sodipodi:type="arc" />
        <path
           transform="matrix(3.0306313,0,0,3.3112455,226.91401,1167.9175)"
           d="m 181.25,-285.1875 c 0,5.82488 -5.15922,10.54688 -11.52344,10.54688 -6.36422,0 -11.52344,-4.722 -11.52344,-10.54688 0,-5.82488 5.15922,-10.54687 11.52344,-10.54687 6.36422,0 11.52344,4.72199 11.52344,10.54687 z"
           sodipodi:ry="10.546875"
           sodipodi:rx="11.523438"
           sodipodi:cy="-285.1875"
           sodipodi:cx="169.72656"
           id="path4658"
           style="fill:#000000;fill-opacity:1;stroke:#000000;stroke-width:1.49800003;stroke-miterlimit:4;stroke-opacity:1;stroke-dasharray:none"
           sodipodi:type="arc" />
      </g>
    </g>
  </g>
  <g
     id="g5283">
    <rect
       style="opacity:0.5;fill:#ffffff;fill-opacity:1;stroke:#ffffff;stroke-width:2;stroke-miterlimit:4;stroke-opacity:1;stroke-dasharray:none"
       id="rect4717"
       width="240"
       height="130"
       x="598.13965"
       y="-9.9940987"
       ry="0" />
    <g
       id="g5104">
      <path
         inkscape:connector-curvature="0"
         id="path4721"
         d="m 635.46537,-4.74438 c -6.50632,0.248 -11.32208,6.0345 -13.52539,11.71875 -2.78743,6.17463 -2.28544,13.1753 -1.86277,19.75948 1.15497,6.31722 4.87167,13.44505 11.67722,14.83526 0.47518,1.61953 0.025,4.15717 0.14086,6.09108 -0.24227,20.45706 -1.45941,40.889 -1.81322,61.34056 0.25899,4.10507 5.16643,7.15794 8.94776,5.24902 3.03724,-1.12629 4.51725,-4.44156 4.02493,-7.53172 -0.49498,-21.63874 -2.03092,-43.2688 -1.80326,-64.91701 2.95739,-1.18343 6.38326,-2.7926 8.10546,-5.81055 4.87064,-7.30347 4.71512,-16.78415 3.06398,-25.04883 C 650.676,2.98205 644.6361,-5.72587 635.46537,-4.74438 z"
         style="opacity:0.5;fill:#293fe5;fill-opacity:1;stroke:#293fe5;stroke-width:0.390625;stroke-miterlimit:4;stroke-opacity:1;stroke-dasharray:none" />
      <path
         inkscape:connector-curvature="0"
         id="path4723"
         d="m 811.55183,-4.83546 c -2.36614,0.45798 -4.52114,2.54969 -3.81225,5.13898 -0.25384,8.34947 0.14311,16.81845 -0.72876,25.09783 -0.9227,1.77179 -3.24598,-0.1125 -2.80762,-1.64795 -0.52182,-8.70238 0.40789,-17.47899 -0.31738,-26.14746 -1.24534,-2.89665 -5.89542,-3.02196 -7.97119,-0.93995 -1.40179,2.25371 -0.47596,5.24761 -0.86057,7.77584 -0.26911,6.95661 0.33435,14.06385 -0.42117,20.9351 -0.84202,1.79817 -3.47215,0.0772 -2.91593,-1.48921 -0.26528,-8.58361 0.23367,-17.24546 -0.55087,-25.7813 -0.42443,-3.59841 -5.90457,-3.72139 -7.66601,-1.15966 -1.54526,2.61915 -0.45627,5.96198 -0.76304,8.85005 0.30097,8.44 0.12051,16.9699 1.37339,25.32963 0.88445,4.5483 3.47083,9.31829 8.28857,10.47364 2.41522,0.18732 3.23669,1.47253 2.65338,3.88132 -0.17338,21.37039 -1.53746,42.71138 -1.84771,64.07523 0.56025,5.00645 7.83465,7.23328 11.03515,3.29589 2.9912,-1.77053 1.47835,-5.36482 1.71334,-8.16447 -0.54488,-20.77221 -1.6069,-41.52853 -1.94527,-62.30672 4.96842,-0.59112 9.3973,-4.1553 10.52246,-9.10645 2.30722,-9.71907 1.68859,-19.84924 1.9727,-29.78512 -0.19084,-2.63092 0.87409,-6.36607 -2.20463,-7.70266 -0.83351,-0.43174 -1.80184,-0.72171 -2.74659,-0.62256 z"
         style="opacity:0.5;fill:#293fe5;fill-opacity:1;stroke:#0f2bff;stroke-width:0.390625;stroke-miterlimit:4;stroke-opacity:1;stroke-dasharray:none" />
      <g
         style="opacity:0.5"
         id="g4725"
         transform="translate(551.20277,327.71402)">
        <path
           sodipodi:type="arc"
           style="fill:#ffffff;fill-opacity:1;stroke:#293fe5;stroke-width:6.4897809;stroke-miterlimit:4;stroke-opacity:1;stroke-dasharray:none"
           id="path4727"
           sodipodi:cx="133.39844"
           sodipodi:cy="-286.94531"
           sodipodi:rx="10.351562"
           sodipodi:ry="31.445312"
           d="m 143.75,-286.94531 c 0,17.36676 -4.63455,31.44531 -10.35156,31.44531 -5.71701,0 -10.35156,-14.07855 -10.35156,-31.44531 0,-17.36677 4.63455,-31.44531 10.35156,-31.44531 5.71701,0 10.35156,14.07854 10.35156,31.44531 z"
           transform="matrix(4.5916781,0,0,1.5115459,-445.67118,161.02289)" />
        <path
           sodipodi:type="arc"
           style="fill:#293fe5;fill-opacity:1;stroke:#293fe5;stroke-width:1.49800003;stroke-miterlimit:4;stroke-opacity:1;stroke-dasharray:none"
           id="path4729"
           sodipodi:cx="169.72656"
           sodipodi:cy="-285.1875"
           sodipodi:rx="11.523438"
           sodipodi:ry="10.546875"
           d="m 181.25,-285.1875 c 0,5.82488 -5.15922,10.54688 -11.52344,10.54688 -6.36422,0 -11.52344,-4.722 -11.52344,-10.54688 0,-5.82488 5.15922,-10.54687 11.52344,-10.54687 6.36422,0 11.52344,4.72199 11.52344,10.54687 z"
           transform="matrix(3.0306313,0,0,3.3112455,-347.52713,671.61771)" />
      </g>
    </g>
  </g>
  <g
     id="g5249">
    <rect
       style="opacity:0.5;fill:#ffffff;fill-opacity:1;stroke:#ffffff;stroke-width:2;stroke-miterlimit:4;stroke-opacity:1;stroke-dasharray:none"
       id="rect4848"
       width="240"
       height="130"
       x="598.13965"
       y="-178.57986"
       ry="0" />
    <g
       transform="translate(-7.930075e-6,0)"
       id="g5076">
      <path
         inkscape:connector-curvature="0"
         id="path4852"
         d="m 635.46537,-173.33016 c -6.50632,0.248 -11.32208,6.0345 -13.52539,11.71875 -2.78743,6.17463 -2.28544,13.1753 -1.86277,19.75948 1.15497,6.31722 4.87167,13.44505 11.67722,14.83526 0.47518,1.61953 0.025,4.15717 0.14086,6.09108 -0.24227,20.45706 -1.45941,40.889002 -1.81322,61.340562 0.25899,4.10507 5.16643,7.15794 8.94775,5.24902 3.03725,-1.12629 4.51725,-4.44156 4.02493,-7.53172 -0.49497,-21.63874 -2.03092,-43.268802 -1.80326,-64.917012 2.95739,-1.18343 6.38327,-2.7926 8.10547,-5.81055 4.87064,-7.30347 4.71512,-16.78415 3.06398,-25.04883 -1.74494,-7.95961 -7.78484,-16.66753 -16.95557,-15.68604 z"
         style="opacity:0.5;fill:#e59829;fill-opacity:1;stroke:#e59829;stroke-width:0.390625;stroke-miterlimit:4;stroke-opacity:1;stroke-dasharray:none" />
      <path
         inkscape:connector-curvature="0"
         id="path4854"
         d="m 811.55183,-173.42124 c -2.36614,0.45798 -4.52114,2.54969 -3.81225,5.13898 -0.25384,8.34947 0.14311,16.81845 -0.72876,25.09783 -0.9227,1.77179 -3.24598,-0.1125 -2.80762,-1.64795 -0.52182,-8.70238 0.40789,-17.47899 -0.31738,-26.14746 -1.24534,-2.89665 -5.89542,-3.02196 -7.97119,-0.93995 -1.40179,2.25371 -0.47596,5.24761 -0.86057,7.77584 -0.26911,6.95661 0.33435,14.06385 -0.42117,20.9351 -0.84202,1.79817 -3.47215,0.0772 -2.91593,-1.48921 -0.26528,-8.58361 0.23367,-17.24546 -0.55087,-25.7813 -0.42443,-3.59841 -5.90457,-3.72139 -7.66601,-1.15966 -1.54526,2.61915 -0.45627,5.96198 -0.76304,8.85005 0.30097,8.44 0.12051,16.9699 1.37339,25.32963 0.88445,4.5483 3.47083,9.31829 8.28857,10.47364 2.41522,0.18732 3.23669,1.47253 2.65338,3.88132 -0.17338,21.37039 -1.53746,42.711382 -1.84771,64.075232 0.56025,5.00645 7.83465,7.23328 11.03515,3.29589 2.9912,-1.77053 1.47835,-5.36482 1.71334,-8.16447 -0.54488,-20.77221 -1.6069,-41.528532 -1.94527,-62.306722 4.96842,-0.59112 9.3973,-4.1553 10.52246,-9.10645 2.30722,-9.71907 1.68859,-19.84924 1.9727,-29.78512 -0.19084,-2.63092 0.87409,-6.36607 -2.20463,-7.70266 -0.83351,-0.43174 -1.80184,-0.72171 -2.74659,-0.62256 z"
         style="opacity:0.5;fill:#e59829;fill-opacity:1;stroke:#ff9c0f;stroke-width:0.390625;stroke-miterlimit:4;stroke-opacity:1;stroke-dasharray:none" />
      <g
         style="opacity:0.5"
         id="g4856"
         transform="translate(-7.7936781,-10.902588)">
        <path
           sodipodi:type="arc"
           style="fill:#ffffff;fill-opacity:1;stroke:#e59829;stroke-width:6.4897809;stroke-miterlimit:4;stroke-opacity:1;stroke-dasharray:none"
           id="path4858"
           sodipodi:cx="133.39844"
           sodipodi:cy="-286.94531"
           sodipodi:rx="10.351562"
           sodipodi:ry="31.445312"
           d="m 143.75,-286.94531 c 0,17.36676 -4.63455,31.44531 -10.35156,31.44531 -5.71701,0 -10.35156,-14.07855 -10.35156,-31.44531 0,-17.36677 4.63455,-31.44531 10.35156,-31.44531 5.71701,0 10.35156,14.07854 10.35156,31.44531 z"
           transform="matrix(4.5916781,0,0,1.5115459,113.32527,331.05372)" />
        <path
           sodipodi:type="arc"
           style="fill:#e59829;fill-opacity:1;stroke:#e59829;stroke-width:1.49800003;stroke-miterlimit:4;stroke-opacity:1;stroke-dasharray:none"
           id="path4860"
           sodipodi:cx="169.72656"
           sodipodi:cy="-285.1875"
           sodipodi:rx="11.523438"
           sodipodi:ry="10.546875"
           d="m 181.25,-285.1875 c 0,5.82488 -5.15922,10.54688 -11.52344,10.54688 -6.36422,0 -11.52344,-4.722 -11.52344,-10.54688 0,-5.82488 5.15922,-10.54687 11.52344,-10.54687 6.36422,0 11.52344,4.72199 11.52344,10.54687 z"
           transform="matrix(3.0306313,0,0,3.3112455,211.46932,841.64854)" />
      </g>
    </g>
  </g>
  <g
     transform="matrix(0.51652893,0,0,0.51652893,302.62381,-89.319961)"
     inkscape:export-ydpi="90"
     inkscape:export-xdpi="90"
     inkscape:export-filename="/Users/minami/iosAppDevelop/MealReport/image/iconRed.png"
     id="use5194">
    <rect
       ry="0"
       y="-347.16565"
       x="598.13965"
       height="130"
       width="240"
       id="rect5301"
       style="opacity:0.5;fill:#ffffff;fill-opacity:1;stroke:#ffffff;stroke-width:2;stroke-miterlimit:4;stroke-opacity:1;stroke-dasharray:none" />
    <g
       id="g5303">
      <path
         style="opacity:0.5;fill:#e55529;fill-opacity:1;stroke:#e55529;stroke-width:0.390625;stroke-miterlimit:4;stroke-opacity:1;stroke-dasharray:none"
         d="m 635.46537,-341.91592 c -6.50632,0.248 -11.32208,6.0345 -13.52539,11.71875 -2.78743,6.17463 -2.28544,13.1753 -1.86277,19.75948 1.15497,6.31722 4.87167,13.44505 11.67722,14.83526 0.47518,1.61953 0.025,4.15717 0.14086,6.09108 -0.24227,20.45706 -1.45941,40.889 -1.81322,61.34056 0.25899,4.10507 5.16643,7.15794 8.94775,5.24902 3.03725,-1.12629 4.51725,-4.44156 4.02493,-7.53172 -0.49497,-21.63874 -2.03092,-43.2688 -1.80326,-64.91701 2.95739,-1.18343 6.38327,-2.7926 8.10547,-5.81055 4.87064,-7.30347 4.71512,-16.78415 3.06398,-25.04883 -1.74494,-7.95961 -7.78484,-16.66753 -16.95557,-15.68604 z"
         id="path5305"
         inkscape:connector-curvature="0" />
      <path
         style="opacity:0.5;fill:#e55529;fill-opacity:1;stroke:#ff470f;stroke-width:0.390625;stroke-miterlimit:4;stroke-opacity:1;stroke-dasharray:none"
         d="m 811.55183,-342.007 c -2.36614,0.45798 -4.52114,2.54969 -3.81225,5.13898 -0.25384,8.34947 0.14311,16.81845 -0.72876,25.09783 -0.9227,1.77179 -3.24598,-0.1125 -2.80762,-1.64795 -0.52182,-8.70238 0.40789,-17.47899 -0.31738,-26.14746 -1.24534,-2.89665 -5.89542,-3.02196 -7.97119,-0.93995 -1.40179,2.25371 -0.47596,5.24761 -0.86057,7.77584 -0.26911,6.95661 0.33435,14.06385 -0.42117,20.9351 -0.84202,1.79817 -3.47215,0.0772 -2.91593,-1.48921 -0.26528,-8.58361 0.23367,-17.24546 -0.55087,-25.7813 -0.42443,-3.59841 -5.90457,-3.72139 -7.66601,-1.15966 -1.54526,2.61915 -0.45627,5.96198 -0.76304,8.85005 0.30097,8.44 0.12051,16.9699 1.37339,25.32963 0.88445,4.5483 3.47083,9.31829 8.28857,10.47364 2.41522,0.18732 3.23669,1.47253 2.65338,3.88132 -0.17338,21.37039 -1.53746,42.71138 -1.84771,64.07523 0.56025,5.00645 7.83465,7.23328 11.03515,3.29589 2.9912,-1.77053 1.47835,-5.36482 1.71334,-8.16447 -0.54488,-20.77221 -1.6069,-41.52853 -1.94527,-62.30672 4.96842,-0.59112 9.3973,-4.1553 10.52246,-9.10645 2.30722,-9.71907 1.68859,-19.84924 1.9727,-29.78512 -0.19084,-2.63092 0.87409,-6.36607 -2.20463,-7.70266 -0.83351,-0.43174 -1.80184,-0.72171 -2.74659,-0.62256 z"
         id="path5307"
         inkscape:connector-curvature="0" />
      <g
         transform="translate(559.79843,-84.889664)"
         id="g5309"
         style="opacity:0.5">
        <path
           transform="matrix(4.5916781,0,0,1.5115459,-454.26684,236.45503)"
           d="m 143.75,-286.94531 c 0,17.36676 -4.63455,31.44531 -10.35156,31.44531 -5.71701,0 -10.35156,-14.07855 -10.35156,-31.44531 0,-17.36677 4.63455,-31.44531 10.35156,-31.44531 5.71701,0 10.35156,14.07854 10.35156,31.44531 z"
           sodipodi:ry="31.445312"
           sodipodi:rx="10.351562"
           sodipodi:cy="-286.94531"
           sodipodi:cx="133.39844"
           id="path5311"
           style="fill:#ffffff;fill-opacity:1;stroke:#e55529;stroke-width:6.4897809;stroke-miterlimit:4;stroke-opacity:1;stroke-dasharray:none"
           sodipodi:type="arc" />
        <path
           transform="matrix(3.0306313,0,0,3.3112455,-356.12279,747.04985)"
           d="m 181.25,-285.1875 c 0,5.82488 -5.15922,10.54688 -11.52344,10.54688 -6.36422,0 -11.52344,-4.722 -11.52344,-10.54688 0,-5.82488 5.15922,-10.54687 11.52344,-10.54687 6.36422,0 11.52344,4.72199 11.52344,10.54687 z"
           sodipodi:ry="10.546875"
           sodipodi:rx="11.523438"
           sodipodi:cy="-285.1875"
           sodipodi:cx="169.72656"
           id="path5313"
           style="fill:#e55529;fill-opacity:1;stroke:#e55529;stroke-width:1.49800003;stroke-miterlimit:4;stroke-opacity:1;stroke-dasharray:none"
           sodipodi:type="arc" />
      </g>
    </g>
  </g>
  <rect
     style="fill:#ffffff;fill-opacity:1;stroke:#000000;stroke-width:1.54177749;stroke-miterlimit:4;stroke-opacity:1;stroke-dasharray:none"
     id="rect5192"
     width="318.45822"
     height="453.45822"
     x="-384.67578"
     y="-187.70886"
     inkscape:export-filename="/Users/minami/iosAppDevelop/MealReport/image/background.png"
     inkscape:export-xdpi="90"
     inkscape:export-ydpi="90" />
  <g
     id="g7096"
     transform="translate(-9.6491249,12.280689)">
    <g
       transform="matrix(0.8,0,0,0.8,-356.31435,81.096009)"
       id="g5322"
       style="opacity:0.3">
      <rect
         ry="0"
         y="-352.90054"
         x="-23.837488"
         height="67.148758"
         width="123.96694"
         id="rect4796"
         style="opacity:0.5;fill:#ffffff;fill-opacity:1;stroke:#ffffff;stroke-width:1.03305781;stroke-miterlimit:4;stroke-opacity:1;stroke-dasharray:none" />
      <g
         id="g5048"
         transform="matrix(0.51652893,0,0,0.51652893,-332.79393,-173.57945)">
        <path
           style="opacity:0.5;fill:#e55529;fill-opacity:1;stroke:#e55529;stroke-width:0.390625;stroke-miterlimit:4;stroke-opacity:1;stroke-dasharray:none"
           d="m 635.46537,-341.91592 c -6.50632,0.248 -11.32208,6.0345 -13.52539,11.71875 -2.78743,6.17463 -2.28544,13.1753 -1.86277,19.75948 1.15497,6.31722 4.87167,13.44505 11.67722,14.83526 0.47518,1.61953 0.025,4.15717 0.14086,6.09108 -0.24227,20.45706 -1.45941,40.889 -1.81322,61.34056 0.25899,4.10507 5.16643,7.15794 8.94775,5.24902 3.03725,-1.12629 4.51725,-4.44156 4.02493,-7.53172 -0.49497,-21.63874 -2.03092,-43.2688 -1.80326,-64.91701 2.95739,-1.18343 6.38327,-2.7926 8.10547,-5.81055 4.87064,-7.30347 4.71512,-16.78415 3.06398,-25.04883 -1.74494,-7.95961 -7.78484,-16.66753 -16.95557,-15.68604 z"
           id="path4800"
           inkscape:connector-curvature="0" />
        <path
           style="opacity:0.5;fill:#e55529;fill-opacity:1;stroke:#ff470f;stroke-width:0.390625;stroke-miterlimit:4;stroke-opacity:1;stroke-dasharray:none"
           d="m 811.55183,-342.007 c -2.36614,0.45798 -4.52114,2.54969 -3.81225,5.13898 -0.25384,8.34947 0.14311,16.81845 -0.72876,25.09783 -0.9227,1.77179 -3.24598,-0.1125 -2.80762,-1.64795 -0.52182,-8.70238 0.40789,-17.47899 -0.31738,-26.14746 -1.24534,-2.89665 -5.89542,-3.02196 -7.97119,-0.93995 -1.40179,2.25371 -0.47596,5.24761 -0.86057,7.77584 -0.26911,6.95661 0.33435,14.06385 -0.42117,20.9351 -0.84202,1.79817 -3.47215,0.0772 -2.91593,-1.48921 -0.26528,-8.58361 0.23367,-17.24546 -0.55087,-25.7813 -0.42443,-3.59841 -5.90457,-3.72139 -7.66601,-1.15966 -1.54526,2.61915 -0.45627,5.96198 -0.76304,8.85005 0.30097,8.44 0.12051,16.9699 1.37339,25.32963 0.88445,4.5483 3.47083,9.31829 8.28857,10.47364 2.41522,0.18732 3.23669,1.47253 2.65338,3.88132 -0.17338,21.37039 -1.53746,42.71138 -1.84771,64.07523 0.56025,5.00645 7.83465,7.23328 11.03515,3.29589 2.9912,-1.77053 1.47835,-5.36482 1.71334,-8.16447 -0.54488,-20.77221 -1.6069,-41.52853 -1.94527,-62.30672 4.96842,-0.59112 9.3973,-4.1553 10.52246,-9.10645 2.30722,-9.71907 1.68859,-19.84924 1.9727,-29.78512 -0.19084,-2.63092 0.87409,-6.36607 -2.20463,-7.70266 -0.83351,-0.43174 -1.80184,-0.72171 -2.74659,-0.62256 z"
           id="path4802"
           inkscape:connector-curvature="0" />
        <g
           transform="translate(559.79843,-84.889664)"
           id="g4804"
           style="opacity:0.5">
          <path
             transform="matrix(4.5916781,0,0,1.5115459,-454.26684,236.45503)"
             d="m 143.75,-286.94531 c 0,17.36676 -4.63455,31.44531 -10.35156,31.44531 -5.71701,0 -10.35156,-14.07855 -10.35156,-31.44531 0,-17.36677 4.63455,-31.44531 10.35156,-31.44531 5.71701,0 10.35156,14.07854 10.35156,31.44531 z"
             sodipodi:ry="31.445312"
             sodipodi:rx="10.351562"
             sodipodi:cy="-286.94531"
             sodipodi:cx="133.39844"
             id="path4806"
             style="fill:#ffffff;fill-opacity:1;stroke:#e55529;stroke-width:6.4897809;stroke-miterlimit:4;stroke-opacity:1;stroke-dasharray:none"
             sodipodi:type="arc" />
          <path
             transform="matrix(3.0306313,0,0,3.3112455,-356.12279,747.04985)"
             d="m 181.25,-285.1875 c 0,5.82488 -5.15922,10.54688 -11.52344,10.54688 -6.36422,0 -11.52344,-4.722 -11.52344,-10.54688 0,-5.82488 5.15922,-10.54687 11.52344,-10.54687 6.36422,0 11.52344,4.72199 11.52344,10.54687 z"
             sodipodi:ry="10.546875"
             sodipodi:rx="11.523438"
             sodipodi:cy="-285.1875"
             sodipodi:cx="169.72656"
             id="path4808"
             style="fill:#e55529;fill-opacity:1;stroke:#e55529;stroke-width:1.49800003;stroke-miterlimit:4;stroke-opacity:1;stroke-dasharray:none"
             sodipodi:type="arc" />
        </g>
      </g>
    </g>
    <g
       transform="matrix(0.8,0,0,0.8,-309.10928,77.275013)"
       id="g5331"
       style="opacity:0.3">
      <rect
         style="opacity:0.5;fill:#ffffff;fill-opacity:1;stroke:#ffffff;stroke-width:1.03305781;stroke-miterlimit:4;stroke-opacity:1;stroke-dasharray:none"
         id="rect5228"
         width="123.96694"
         height="67.148758"
         x="54.656181"
         y="-348.1243"
         ry="0" />
      <g
         transform="matrix(0.51652893,0,0,0.51652893,-254.30026,-255.88264)"
         id="g5230">
        <path
           inkscape:connector-curvature="0"
           id="path5232"
           d="m 635.46537,-173.33016 c -6.50632,0.248 -11.32208,6.0345 -13.52539,11.71875 -2.78743,6.17463 -2.28544,13.1753 -1.86277,19.75948 1.15497,6.31722 4.87167,13.44505 11.67722,14.83526 0.47518,1.61953 0.025,4.15717 0.14086,6.09108 -0.24227,20.45706 -1.45941,40.889002 -1.81322,61.340562 0.25899,4.10507 5.16643,7.15794 8.94775,5.24902 3.03725,-1.12629 4.51725,-4.44156 4.02493,-7.53172 -0.49497,-21.63874 -2.03092,-43.268802 -1.80326,-64.917012 2.95739,-1.18343 6.38327,-2.7926 8.10547,-5.81055 4.87064,-7.30347 4.71512,-16.78415 3.06398,-25.04883 -1.74494,-7.95961 -7.78484,-16.66753 -16.95557,-15.68604 z"
           style="opacity:0.5;fill:#e59829;fill-opacity:1;stroke:#e59829;stroke-width:0.390625;stroke-miterlimit:4;stroke-opacity:1;stroke-dasharray:none" />
        <path
           inkscape:connector-curvature="0"
           id="path5234"
           d="m 811.55183,-173.42124 c -2.36614,0.45798 -4.52114,2.54969 -3.81225,5.13898 -0.25384,8.34947 0.14311,16.81845 -0.72876,25.09783 -0.9227,1.77179 -3.24598,-0.1125 -2.80762,-1.64795 -0.52182,-8.70238 0.40789,-17.47899 -0.31738,-26.14746 -1.24534,-2.89665 -5.89542,-3.02196 -7.97119,-0.93995 -1.40179,2.25371 -0.47596,5.24761 -0.86057,7.77584 -0.26911,6.95661 0.33435,14.06385 -0.42117,20.9351 -0.84202,1.79817 -3.47215,0.0772 -2.91593,-1.48921 -0.26528,-8.58361 0.23367,-17.24546 -0.55087,-25.7813 -0.42443,-3.59841 -5.90457,-3.72139 -7.66601,-1.15966 -1.54526,2.61915 -0.45627,5.96198 -0.76304,8.85005 0.30097,8.44 0.12051,16.9699 1.37339,25.32963 0.88445,4.5483 3.47083,9.31829 8.28857,10.47364 2.41522,0.18732 3.23669,1.47253 2.65338,3.88132 -0.17338,21.37039 -1.53746,42.711382 -1.84771,64.075232 0.56025,5.00645 7.83465,7.23328 11.03515,3.29589 2.9912,-1.77053 1.47835,-5.36482 1.71334,-8.16447 -0.54488,-20.77221 -1.6069,-41.528532 -1.94527,-62.306722 4.96842,-0.59112 9.3973,-4.1553 10.52246,-9.10645 2.30722,-9.71907 1.68859,-19.84924 1.9727,-29.78512 -0.19084,-2.63092 0.87409,-6.36607 -2.20463,-7.70266 -0.83351,-0.43174 -1.80184,-0.72171 -2.74659,-0.62256 z"
           style="opacity:0.5;fill:#e59829;fill-opacity:1;stroke:#ff9c0f;stroke-width:0.390625;stroke-miterlimit:4;stroke-opacity:1;stroke-dasharray:none" />
        <g
           style="opacity:0.5"
           id="g5236"
           transform="translate(-7.7936781,-10.902588)">
          <path
             sodipodi:type="arc"
             style="fill:#ffffff;fill-opacity:1;stroke:#e59829;stroke-width:6.4897809;stroke-miterlimit:4;stroke-opacity:1;stroke-dasharray:none"
             id="path5238"
             sodipodi:cx="133.39844"
             sodipodi:cy="-286.94531"
             sodipodi:rx="10.351562"
             sodipodi:ry="31.445312"
             d="m 143.75,-286.94531 c 0,17.36676 -4.63455,31.44531 -10.35156,31.44531 -5.71701,0 -10.35156,-14.07855 -10.35156,-31.44531 0,-17.36677 4.63455,-31.44531 10.35156,-31.44531 5.71701,0 10.35156,14.07854 10.35156,31.44531 z"
             transform="matrix(4.5916781,0,0,1.5115459,113.32527,331.05372)" />
          <path
             sodipodi:type="arc"
             style="fill:#e59829;fill-opacity:1;stroke:#e59829;stroke-width:1.49800003;stroke-miterlimit:4;stroke-opacity:1;stroke-dasharray:none"
             id="path5240"
             sodipodi:cx="169.72656"
             sodipodi:cy="-285.1875"
             sodipodi:rx="11.523438"
             sodipodi:ry="10.546875"
             d="m 181.25,-285.1875 c 0,5.82488 -5.15922,10.54688 -11.52344,10.54688 -6.36422,0 -11.52344,-4.722 -11.52344,-10.54688 0,-5.82488 5.15922,-10.54687 11.52344,-10.54687 6.36422,0 11.52344,4.72199 11.52344,10.54687 z"
             transform="matrix(3.0306313,0,0,3.3112455,211.46932,841.64854)" />
        </g>
      </g>
    </g>
    <g
       transform="matrix(0.8,0,0,0.8,-407.90929,51.688929)"
       id="g5347"
       style="opacity:0.3">
      <rect
         style="opacity:0.5;fill:#ffffff;fill-opacity:1;stroke:#ffffff;stroke-width:1.03305781;stroke-miterlimit:4;stroke-opacity:1;stroke-dasharray:none"
         id="rect5262"
         width="123.96694"
         height="67.148758"
         x="315.65619"
         y="-316.14169"
         ry="0" />
      <g
         id="g5264"
         transform="matrix(0.51652893,0,0,0.51652893,6.69975,-310.97946)">
        <path
           inkscape:connector-curvature="0"
           id="path5266"
           d="m 635.46537,-4.74438 c -6.50632,0.248 -11.32208,6.0345 -13.52539,11.71875 -2.78743,6.17463 -2.28544,13.1753 -1.86277,19.75948 1.15497,6.31722 4.87167,13.44505 11.67722,14.83526 0.47518,1.61953 0.025,4.15717 0.14086,6.09108 -0.24227,20.45706 -1.45941,40.889 -1.81322,61.34056 0.25899,4.10507 5.16643,7.15794 8.94776,5.24902 3.03724,-1.12629 4.51725,-4.44156 4.02493,-7.53172 -0.49498,-21.63874 -2.03092,-43.2688 -1.80326,-64.91701 2.95739,-1.18343 6.38326,-2.7926 8.10546,-5.81055 4.87064,-7.30347 4.71512,-16.78415 3.06398,-25.04883 C 650.676,2.98205 644.6361,-5.72587 635.46537,-4.74438 z"
           style="opacity:0.5;fill:#293fe5;fill-opacity:1;stroke:#293fe5;stroke-width:0.390625;stroke-miterlimit:4;stroke-opacity:1;stroke-dasharray:none" />
        <path
           inkscape:connector-curvature="0"
           id="path5268"
           d="m 811.55183,-4.83546 c -2.36614,0.45798 -4.52114,2.54969 -3.81225,5.13898 -0.25384,8.34947 0.14311,16.81845 -0.72876,25.09783 -0.9227,1.77179 -3.24598,-0.1125 -2.80762,-1.64795 -0.52182,-8.70238 0.40789,-17.47899 -0.31738,-26.14746 -1.24534,-2.89665 -5.89542,-3.02196 -7.97119,-0.93995 -1.40179,2.25371 -0.47596,5.24761 -0.86057,7.77584 -0.26911,6.95661 0.33435,14.06385 -0.42117,20.9351 -0.84202,1.79817 -3.47215,0.0772 -2.91593,-1.48921 -0.26528,-8.58361 0.23367,-17.24546 -0.55087,-25.7813 -0.42443,-3.59841 -5.90457,-3.72139 -7.66601,-1.15966 -1.54526,2.61915 -0.45627,5.96198 -0.76304,8.85005 0.30097,8.44 0.12051,16.9699 1.37339,25.32963 0.88445,4.5483 3.47083,9.31829 8.28857,10.47364 2.41522,0.18732 3.23669,1.47253 2.65338,3.88132 -0.17338,21.37039 -1.53746,42.71138 -1.84771,64.07523 0.56025,5.00645 7.83465,7.23328 11.03515,3.29589 2.9912,-1.77053 1.47835,-5.36482 1.71334,-8.16447 -0.54488,-20.77221 -1.6069,-41.52853 -1.94527,-62.30672 4.96842,-0.59112 9.3973,-4.1553 10.52246,-9.10645 2.30722,-9.71907 1.68859,-19.84924 1.9727,-29.78512 -0.19084,-2.63092 0.87409,-6.36607 -2.20463,-7.70266 -0.83351,-0.43174 -1.80184,-0.72171 -2.74659,-0.62256 z"
           style="opacity:0.5;fill:#293fe5;fill-opacity:1;stroke:#0f2bff;stroke-width:0.390625;stroke-miterlimit:4;stroke-opacity:1;stroke-dasharray:none" />
        <g
           style="opacity:0.5"
           id="g5270"
           transform="translate(551.20277,327.71402)">
          <path
             sodipodi:type="arc"
             style="fill:#ffffff;fill-opacity:1;stroke:#293fe5;stroke-width:6.4897809;stroke-miterlimit:4;stroke-opacity:1;stroke-dasharray:none"
             id="path5272"
             sodipodi:cx="133.39844"
             sodipodi:cy="-286.94531"
             sodipodi:rx="10.351562"
             sodipodi:ry="31.445312"
             d="m 143.75,-286.94531 c 0,17.36676 -4.63455,31.44531 -10.35156,31.44531 -5.71701,0 -10.35156,-14.07855 -10.35156,-31.44531 0,-17.36677 4.63455,-31.44531 10.35156,-31.44531 5.71701,0 10.35156,14.07854 10.35156,31.44531 z"
             transform="matrix(4.5916781,0,0,1.5115459,-445.67118,161.02289)" />
          <path
             sodipodi:type="arc"
             style="fill:#293fe5;fill-opacity:1;stroke:#293fe5;stroke-width:1.49800003;stroke-miterlimit:4;stroke-opacity:1;stroke-dasharray:none"
             id="path5274"
             sodipodi:cx="169.72656"
             sodipodi:cy="-285.1875"
             sodipodi:rx="11.523438"
             sodipodi:ry="10.546875"
             d="m 181.25,-285.1875 c 0,5.82488 -5.15922,10.54688 -11.52344,10.54688 -6.36422,0 -11.52344,-4.722 -11.52344,-10.54688 0,-5.82488 5.15922,-10.54687 11.52344,-10.54687 6.36422,0 11.52344,4.72199 11.52344,10.54687 z"
             transform="matrix(3.0306313,0,0,3.3112455,-347.52713,671.61771)" />
        </g>
      </g>
    </g>
  </g>
  <g
     id="g7127"
     transform="translate(-9.6491309,29.480049)">
    <use
       height="32"
       width="230"
       transform="translate(220,142.98246)"
       id="use7084"
       xlink:href="#g5322"
       y="0"
       x="0" />
    <use
       height="32"
       width="230"
       transform="translate(-110,142.98246)"
       id="use7088"
       xlink:href="#g5331"
       y="0"
       x="0" />
    <use
       height="32"
       width="230"
       transform="translate(-110,142.98246)"
       id="use7092"
       xlink:href="#g5347"
       y="0"
       x="0" />
  </g>
  <use
     x="0"
     y="0"
     xlink:href="#g7096"
     id="use7132"
     transform="translate(-1.2280702e-7,240.27273)"
     width="230"
     height="32" />
  <g
     transform="translate(-9.649127,253.69697)"
     id="use7134">
    <use
       x="0"
       y="0"
       xlink:href="#use7084"
       id="use7366"
       transform="translate(-110,-64.035092)"
       width="230"
       height="32" />
    <use
       x="0"
       y="0"
       xlink:href="#use7088"
       id="use7368"
       transform="translate(220,-64.035092)"
       width="230"
       height="32" />
    <use
       x="0"
       y="0"
       xlink:href="#use7092"
       id="use7370"
       transform="translate(-110,-64.035092)"
       width="230"
       height="32" />
  </g>
  <use
     x="0"
     y="0"
     xlink:href="#g7127"
     id="use7136"
     transform="translate(-1.2280702e-7,240.27274)"
     width="230"
     height="32" />
</svg>
