<?xml version="1.0" encoding="UTF-8" standalone="no"?>
<!-- Created with Inkscape (http://www.inkscape.org/) -->

<svg
   xmlns:dc="http://purl.org/dc/elements/1.1/"
   xmlns:cc="http://creativecommons.org/ns#"
   xmlns:rdf="http://www.w3.org/1999/02/22-rdf-syntax-ns#"
   xmlns:svg="http://www.w3.org/2000/svg"
   xmlns="http://www.w3.org/2000/svg"
   xmlns:xlink="http://www.w3.org/1999/xlink"
   xmlns:sodipodi="http://sodipodi.sourceforge.net/DTD/sodipodi-0.dtd"
   xmlns:inkscape="http://www.inkscape.org/namespaces/inkscape"
   id="svg3003"
   version="1.1"
   inkscape:version="0.48.5 r10040"
   width="230"
   height="32"
   sodipodi:docname="InputTab.svg">
  <metadata
     id="metadata3009">
    <rdf:RDF>
      <cc:Work
         rdf:about="">
        <dc:format>image/svg+xml</dc:format>
        <dc:type
           rdf:resource="http://purl.org/dc/dcmitype/StillImage" />
        <dc:title></dc:title>
      </cc:Work>
    </rdf:RDF>
  </metadata>
  <defs
     id="defs3007" />
  <sodipodi:namedview
     pagecolor="#ffffff"
     bordercolor="#666666"
     borderopacity="1"
     objecttolerance="10"
     gridtolerance="10"
     guidetolerance="10"
     inkscape:pageopacity="0"
     inkscape:pageshadow="2"
     inkscape:window-width="1322"
     inkscape:window-height="723"
     id="namedview3005"
     showgrid="true"
     inkscape:zoom="4.9497475"
     inkscape:cx="937.85714"
     inkscape:cy="190.20161"
     inkscape:window-x="55"
     inkscape:window-y="5"
     inkscape:window-maximized="0"
     inkscape:current-layer="svg3003"
     showguides="true"
     inkscape:snap-global="true">
    <inkscape:grid
       type="xygrid"
       id="grid4455" />
  </sodipodi:namedview>
  <g
     id="g3888">
    <g
       id="g3882">
      <g
         id="g3877">
        <g
           id="g3873">
          <g
             id="g3870">
            <rect
               style="fill:#e55529;fill-opacity:1;stroke:#e55529;stroke-width:2.88138247;stroke-miterlimit:4;stroke-opacity:1;stroke-dasharray:none"
               id="rect4285"
               width="197.11861"
               height="42.118618"
               x="318.46909"
               y="-59.46085"
               ry="4.2978177" />
          </g>
        </g>
      </g>
    </g>
  </g>
  <rect
     transform="matrix(0.70189243,0.71228296,-0.71228296,0.70189243,0,0)"
     ry="0"
     y="-387.05569"
     x="317.2428"
     height="1.7593048"
     width="10.283518"
     id="rect4289"
     style="fill:#ffffff;fill-opacity:1;stroke:#ffffff;stroke-width:0.21053506;stroke-miterlimit:4;stroke-opacity:1;stroke-dasharray:none" />
  <rect
     style="fill:#e59829;fill-opacity:0.94117647;stroke:#e59829;stroke-width:0.21053506;stroke-miterlimit:4;stroke-opacity:1;stroke-dasharray:none"
     id="use4291"
     width="10.283518"
     height="1.7593048"
     x="371.94833"
     y="-333.14819"
     ry="0"
     transform="matrix(0.70189243,-0.71228296,-0.71228296,-0.70189243,0,0)" />
  <rect
     ry="4.2978177"
     y="78.859612"
     x="318.46909"
     height="42.118618"
     width="197.11861"
     id="rect4319"
     style="fill:#2940e5;fill-opacity:1;stroke:#c00000;stroke-width:2.88138247000000014;stroke-miterlimit:4;stroke-opacity:0;stroke-dasharray:none" />
  <rect
     transform="matrix(0.70189243,0.71228296,-0.71228296,0.70189243,0,0)"
     ry="0"
     y="-289.9696"
     x="415.76611"
     height="1.7593048"
     width="10.283518"
     id="rect4323"
     style="fill:#ffffff;fill-opacity:1;stroke:#c00000;stroke-width:0.21053506000000000;stroke-miterlimit:4;stroke-opacity:0;stroke-dasharray:none" />
  <rect
     style="fill:#e59829;fill-opacity:0.94117647000000004;stroke:#c00000;stroke-width:0.21053506000000000;stroke-miterlimit:4;stroke-opacity:0;stroke-dasharray:none"
     id="use4325"
     width="10.283518"
     height="1.7593048"
     x="273.42502"
     y="-430.23428"
     ry="0"
     transform="matrix(0.70189243,-0.71228296,-0.71228296,-0.70189243,0,0)" />
  <path
     style="fill:none;stroke:#000000;stroke-width:0.91468453px;stroke-linecap:butt;stroke-linejoin:miter;stroke-opacity:1"
     d="m 787.5081,-495.73042 c 0,33.13679 0,41.42098 12.4263,43.49203 0,24.85258 -2.07105,57.98937 -2.07105,66.27357 0,8.28419 12.42629,8.28419 12.42629,0 0,-8.2842 -2.07104,-41.42099 -2.07104,-66.27357 12.42629,-2.07105 12.42629,-10.35524 12.42629,-43.49203 0,-4.1421 -8.2842,-4.1421 -8.06644,0 -0.21776,8.28419 -0.14518,16.5684 -0.21776,24.85259 0,4.14209 -4.14209,4.14209 -4.14209,0 0,-8.28419 0.002,-16.5684 0.31877,-24.85259 -0.31877,-4.1421 -8.60297,-4.1421 -8.60297,0 0,8.28419 0,16.5684 0,24.85259 0,4.14209 -4.1421,4.14209 -4.1421,0 0,-8.28419 -0.42631,-16.85968 0,-24.85259 0,-4.1421 -8.2842,-4.1421 -8.2842,0 z"
     id="path4526"
     inkscape:connector-curvature="0"
     sodipodi:nodetypes="ccccccccccccccc" />
  <path
     style="fill:none;stroke:#000000;stroke-width:0.90173179px;stroke-linecap:butt;stroke-linejoin:miter;stroke-opacity:1"
     d="m 632.52702,-386.01353 c 0,8.35777 12.53666,8.35777 12.53666,0 0,-8.35778 -2.08944,-41.78888 -2.08944,-66.86219 18.29721,-2.28715 16.40548,-45.96776 -4.17889,-45.96776 -20.58438,0 -22.47611,43.68061 -4.17889,45.96776 0,25.07332 -2.08944,58.50441 -2.08944,66.86219 z"
     id="path4528"
     inkscape:connector-curvature="0"
     sodipodi:nodetypes="cccccc" />
  <g
     id="g5139"
     inkscape:export-filename="/Users/minami/iosAppDevelop/MealReport/image/iconBlack.png"
     inkscape:export-xdpi="90"
     inkscape:export-ydpi="90">
    <rect
       ry="0"
       y="158.59167"
       x="598.13965"
       height="130"
       width="240"
       id="rect4395"
       style="fill:#ffffff;fill-opacity:1;stroke:#ffffff;stroke-width:1;stroke-miterlimit:4;stroke-opacity:1;stroke-dasharray:none" />
    <g
       id="g5132">
      <path
         style="fill:#000000;fill-opacity:1;stroke:#000000;stroke-width:0.390625;stroke-miterlimit:4;stroke-opacity:1;stroke-dasharray:none"
         d="m 635.46537,163.84139 c -6.50632,0.248 -11.32208,6.0345 -13.52539,11.71875 -2.78743,6.17463 -2.28544,13.1753 -1.86277,19.75948 1.15497,6.31722 4.87167,13.44505 11.67722,14.83526 0.47518,1.61953 0.025,4.15717 0.14086,6.09108 -0.24227,20.45706 -1.45941,40.889 -1.81322,61.34056 0.25899,4.10507 5.16643,7.15794 8.94775,5.24902 3.03725,-1.12629 4.51725,-4.44156 4.02493,-7.53172 -0.49497,-21.63874 -2.03092,-43.2688 -1.80326,-64.91701 2.95739,-1.18343 6.38327,-2.7926 8.10547,-5.81055 4.87064,-7.30347 4.71512,-16.78415 3.06398,-25.04883 -1.74494,-7.95961 -7.78484,-16.66753 -16.95557,-15.68604 z"
         id="path4650"
         inkscape:connector-curvature="0" />
      <path
         style="fill:#000000;fill-opacity:1;stroke:#000000;stroke-width:0.390625;stroke-miterlimit:4;stroke-opacity:1;stroke-dasharray:none"
         d="m 811.55183,163.75031 c -2.36614,0.45798 -4.52114,2.54969 -3.81225,5.13898 -0.25384,8.34947 0.14311,16.81845 -0.72876,25.09783 -0.9227,1.77179 -3.24598,-0.1125 -2.80762,-1.64795 -0.52182,-8.70238 0.40789,-17.47899 -0.31738,-26.14746 -1.24534,-2.89665 -5.89542,-3.02196 -7.97119,-0.93995 -1.40179,2.25371 -0.47596,5.24761 -0.86057,7.77584 -0.26911,6.95661 0.33435,14.06385 -0.42117,20.9351 -0.84202,1.79817 -3.47215,0.0772 -2.91593,-1.48921 -0.26528,-8.58361 0.23367,-17.24546 -0.55087,-25.7813 -0.42443,-3.59841 -5.90457,-3.72139 -7.66601,-1.15966 -1.54526,2.61915 -0.45627,5.96198 -0.76304,8.85005 0.30097,8.44 0.12051,16.9699 1.37339,25.32963 0.88445,4.5483 3.47083,9.31829 8.28857,10.47364 2.41522,0.18732 3.23669,1.47253 2.65338,3.88132 -0.17338,21.37039 -1.53746,42.71138 -1.84771,64.07523 0.56025,5.00645 7.83465,7.23328 11.03515,3.29589 2.9912,-1.77053 1.47835,-5.36482 1.71334,-8.16447 -0.54488,-20.77221 -1.6069,-41.52853 -1.94527,-62.30672 4.96842,-0.59112 9.3973,-4.1553 10.52246,-9.10645 2.30722,-9.71907 1.68859,-19.84924 1.9727,-29.78512 -0.19084,-2.63092 0.87409,-6.36607 -2.20463,-7.70266 -0.83351,-0.43174 -1.80184,-0.72171 -2.74659,-0.62256 z"
         id="path4652"
         inkscape:connector-curvature="0" />
      <g
         id="g4876"
         transform="translate(-23.238368,1.5258789e-5)">
        <path
           transform="matrix(4.5916781,0,0,1.5115459,128.76996,657.32266)"
           d="m 143.75,-286.94531 c 0,17.36676 -4.63455,31.44531 -10.35156,31.44531 -5.71701,0 -10.35156,-14.07855 -10.35156,-31.44531 0,-17.36677 4.63455,-31.44531 10.35156,-31.44531 5.71701,0 10.35156,14.07854 10.35156,31.44531 z"
           sodipodi:ry="31.445312"
           sodipodi:rx="10.351562"
           sodipodi:cy="-286.94531"
           sodipodi:cx="133.39844"
           id="path4654"
           style="fill:#ffffff;fill-opacity:1;stroke:#000000;stroke-width:6.4897809;stroke-miterlimit:4;stroke-opacity:1;stroke-dasharray:none"
           sodipodi:type="arc" />
        <path
           transform="matrix(3.0306313,0,0,3.3112455,226.91401,1167.9175)"
           d="m 181.25,-285.1875 c 0,5.82488 -5.15922,10.54688 -11.52344,10.54688 -6.36422,0 -11.52344,-4.722 -11.52344,-10.54688 0,-5.82488 5.15922,-10.54687 11.52344,-10.54687 6.36422,0 11.52344,4.72199 11.52344,10.54687 z"
           sodipodi:ry="10.546875"
           sodipodi:rx="11.523438"
           sodipodi:cy="-285.1875"
           sodipodi:cx="169.72656"
           id="path4658"
           style="fill:#000000;fill-opacity:1;stroke:#000000;stroke-width:1.49800003;stroke-miterlimit:4;stroke-opacity:1;stroke-dasharray:none"
           sodipodi:type="arc" />
      </g>
    </g>
  </g>
  <rect
     ry="0"
     y="-9.9940987"
     x="598.13965"
     height="130"
     width="240"
     id="rect4717"
     style="opacity:0.5;fill:#ffffff;fill-opacity:1;stroke:#ffffff;stroke-width:2;stroke-miterlimit:4;stroke-opacity:1;stroke-dasharray:none" />
  <g
     id="g3927">
    <path
       style="opacity:0.5;fill:#293fe5;fill-opacity:1;stroke:#293fe5;stroke-width:0.390625;stroke-miterlimit:4;stroke-opacity:1;stroke-dasharray:none"
       d="m 635.46537,-4.74438 c -6.50632,0.248 -11.32208,6.0345 -13.52539,11.71875 -2.78743,6.17463 -2.28544,13.1753 -1.86277,19.75948 1.15497,6.31722 4.87167,13.44505 11.67722,14.83526 0.47518,1.61953 0.025,4.15717 0.14086,6.09108 -0.24227,20.45706 -1.45941,40.889 -1.81322,61.34056 0.25899,4.10507 5.16643,7.15794 8.94776,5.24902 3.03724,-1.12629 4.51725,-4.44156 4.02493,-7.53172 -0.49498,-21.63874 -2.03092,-43.2688 -1.80326,-64.91701 2.95739,-1.18343 6.38326,-2.7926 8.10546,-5.81055 4.87064,-7.30347 4.71512,-16.78415 3.06398,-25.04883 C 650.676,2.98205 644.6361,-5.72587 635.46537,-4.74438 z"
       id="path4721"
       inkscape:connector-curvature="0" />
    <path
       style="opacity:0.5;fill:#293fe5;fill-opacity:1;stroke:#0f2bff;stroke-width:0.390625;stroke-miterlimit:4;stroke-opacity:1;stroke-dasharray:none"
       d="m 811.55183,-4.83546 c -2.36614,0.45798 -4.52114,2.54969 -3.81225,5.13898 -0.25384,8.34947 0.14311,16.81845 -0.72876,25.09783 -0.9227,1.77179 -3.24598,-0.1125 -2.80762,-1.64795 -0.52182,-8.70238 0.40789,-17.47899 -0.31738,-26.14746 -1.24534,-2.89665 -5.89542,-3.02196 -7.97119,-0.93995 -1.40179,2.25371 -0.47596,5.24761 -0.86057,7.77584 -0.26911,6.95661 0.33435,14.06385 -0.42117,20.9351 -0.84202,1.79817 -3.47215,0.0772 -2.91593,-1.48921 -0.26528,-8.58361 0.23367,-17.24546 -0.55087,-25.7813 -0.42443,-3.59841 -5.90457,-3.72139 -7.66601,-1.15966 -1.54526,2.61915 -0.45627,5.96198 -0.76304,8.85005 0.30097,8.44 0.12051,16.9699 1.37339,25.32963 0.88445,4.5483 3.47083,9.31829 8.28857,10.47364 2.41522,0.18732 3.23669,1.47253 2.65338,3.88132 -0.17338,21.37039 -1.53746,42.71138 -1.84771,64.07523 0.56025,5.00645 7.83465,7.23328 11.03515,3.29589 2.9912,-1.77053 1.47835,-5.36482 1.71334,-8.16447 -0.54488,-20.77221 -1.6069,-41.52853 -1.94527,-62.30672 4.96842,-0.59112 9.3973,-4.1553 10.52246,-9.10645 2.30722,-9.71907 1.68859,-19.84924 1.9727,-29.78512 -0.19084,-2.63092 0.87409,-6.36607 -2.20463,-7.70266 -0.83351,-0.43174 -1.80184,-0.72171 -2.74659,-0.62256 z"
       id="path4723"
       inkscape:connector-curvature="0" />
    <path
       sodipodi:type="arc"
       style="opacity:0.5;fill:#ffffff;fill-opacity:1;stroke:#293fe5;stroke-width:6.4897809;stroke-miterlimit:4;stroke-opacity:1;stroke-dasharray:none"
       id="path4727"
       sodipodi:cx="133.39844"
       sodipodi:cy="-286.94531"
       sodipodi:rx="10.351562"
       sodipodi:ry="31.445312"
       d="m 143.75,-286.94531 a 10.351562,31.445312 0 1 1 -20.70312,0 10.351562,31.445312 0 1 1 20.70312,0 z"
       transform="matrix(4.5916781,0,0,1.5115459,105.53159,488.73691)" />
    <path
       sodipodi:type="arc"
       style="opacity:0.5;fill:#293fe5;fill-opacity:1;stroke:#293fe5;stroke-width:1.49800003;stroke-miterlimit:4;stroke-opacity:1;stroke-dasharray:none"
       id="path4729"
       sodipodi:cx="169.72656"
       sodipodi:cy="-285.1875"
       sodipodi:rx="11.523438"
       sodipodi:ry="10.546875"
       d="m 181.25,-285.1875 a 11.523438,10.546875 0 1 1 -23.04688,0 11.523438,10.546875 0 1 1 23.04688,0 z"
       transform="matrix(3.0306313,0,0,3.3112455,203.67564,999.33173)" />
  </g>
  <g
     id="g5249">
    <rect
       style="opacity:0.5;fill:#ffffff;fill-opacity:1;stroke:#ffffff;stroke-width:2;stroke-miterlimit:4;stroke-opacity:1;stroke-dasharray:none"
       id="rect4848"
       width="240"
       height="130"
       x="598.13965"
       y="-178.57986"
       ry="0" />
    <g
       transform="translate(-7.930075e-6,0)"
       id="g5076">
      <path
         inkscape:connector-curvature="0"
         id="path4852"
         d="m 635.46537,-173.33016 c -6.50632,0.248 -11.32208,6.0345 -13.52539,11.71875 -2.78743,6.17463 -2.28544,13.1753 -1.86277,19.75948 1.15497,6.31722 4.87167,13.44505 11.67722,14.83526 0.47518,1.61953 0.025,4.15717 0.14086,6.09108 -0.24227,20.45706 -1.45941,40.889002 -1.81322,61.340562 0.25899,4.10507 5.16643,7.15794 8.94775,5.24902 3.03725,-1.12629 4.51725,-4.44156 4.02493,-7.53172 -0.49497,-21.63874 -2.03092,-43.268802 -1.80326,-64.917012 2.95739,-1.18343 6.38327,-2.7926 8.10547,-5.81055 4.87064,-7.30347 4.71512,-16.78415 3.06398,-25.04883 -1.74494,-7.95961 -7.78484,-16.66753 -16.95557,-15.68604 z"
         style="opacity:0.5;fill:#e59829;fill-opacity:1;stroke:#e59829;stroke-width:0.390625;stroke-miterlimit:4;stroke-opacity:1;stroke-dasharray:none" />
      <path
         inkscape:connector-curvature="0"
         id="path4854"
         d="m 811.55183,-173.42124 c -2.36614,0.45798 -4.52114,2.54969 -3.81225,5.13898 -0.25384,8.34947 0.14311,16.81845 -0.72876,25.09783 -0.9227,1.77179 -3.24598,-0.1125 -2.80762,-1.64795 -0.52182,-8.70238 0.40789,-17.47899 -0.31738,-26.14746 -1.24534,-2.89665 -5.89542,-3.02196 -7.97119,-0.93995 -1.40179,2.25371 -0.47596,5.24761 -0.86057,7.77584 -0.26911,6.95661 0.33435,14.06385 -0.42117,20.9351 -0.84202,1.79817 -3.47215,0.0772 -2.91593,-1.48921 -0.26528,-8.58361 0.23367,-17.24546 -0.55087,-25.7813 -0.42443,-3.59841 -5.90457,-3.72139 -7.66601,-1.15966 -1.54526,2.61915 -0.45627,5.96198 -0.76304,8.85005 0.30097,8.44 0.12051,16.9699 1.37339,25.32963 0.88445,4.5483 3.47083,9.31829 8.28857,10.47364 2.41522,0.18732 3.23669,1.47253 2.65338,3.88132 -0.17338,21.37039 -1.53746,42.711382 -1.84771,64.075232 0.56025,5.00645 7.83465,7.23328 11.03515,3.29589 2.9912,-1.77053 1.47835,-5.36482 1.71334,-8.16447 -0.54488,-20.77221 -1.6069,-41.528532 -1.94527,-62.306722 4.96842,-0.59112 9.3973,-4.1553 10.52246,-9.10645 2.30722,-9.71907 1.68859,-19.84924 1.9727,-29.78512 -0.19084,-2.63092 0.87409,-6.36607 -2.20463,-7.70266 -0.83351,-0.43174 -1.80184,-0.72171 -2.74659,-0.62256 z"
         style="opacity:0.5;fill:#e59829;fill-opacity:1;stroke:#ff9c0f;stroke-width:0.390625;stroke-miterlimit:4;stroke-opacity:1;stroke-dasharray:none" />
      <g
         style="opacity:0.5"
         id="g4856"
         transform="translate(-7.7936781,-10.902588)">
        <path
           sodipodi:type="arc"
           style="fill:#ffffff;fill-opacity:1;stroke:#e59829;stroke-width:6.4897809;stroke-miterlimit:4;stroke-opacity:1;stroke-dasharray:none"
           id="path4858"
           sodipodi:cx="133.39844"
           sodipodi:cy="-286.94531"
           sodipodi:rx="10.351562"
           sodipodi:ry="31.445312"
           d="m 143.75,-286.94531 c 0,17.36676 -4.63455,31.44531 -10.35156,31.44531 -5.71701,0 -10.35156,-14.07855 -10.35156,-31.44531 0,-17.36677 4.63455,-31.44531 10.35156,-31.44531 5.71701,0 10.35156,14.07854 10.35156,31.44531 z"
           transform="matrix(4.5916781,0,0,1.5115459,113.32527,331.05372)" />
        <path
           sodipodi:type="arc"
           style="fill:#e59829;fill-opacity:1;stroke:#e59829;stroke-width:1.49800003;stroke-miterlimit:4;stroke-opacity:1;stroke-dasharray:none"
           id="path4860"
           sodipodi:cx="169.72656"
           sodipodi:cy="-285.1875"
           sodipodi:rx="11.523438"
           sodipodi:ry="10.546875"
           d="m 181.25,-285.1875 c 0,5.82488 -5.15922,10.54688 -11.52344,10.54688 -6.36422,0 -11.52344,-4.722 -11.52344,-10.54688 0,-5.82488 5.15922,-10.54687 11.52344,-10.54687 6.36422,0 11.52344,4.72199 11.52344,10.54687 z"
           transform="matrix(3.0306313,0,0,3.3112455,211.46932,841.64854)" />
      </g>
    </g>
  </g>
  <g
     transform="matrix(0.51652893,0,0,0.51652893,296.0653,-87.253284)"
     inkscape:export-ydpi="90"
     inkscape:export-xdpi="90"
     inkscape:export-filename="/Users/minami/iosAppDevelop/MealReport/image/iconRed.png"
     id="use5194">
    <rect
       ry="0"
       y="-347.16565"
       x="598.13965"
       height="130"
       width="240"
       id="rect5301"
       style="opacity:0.5;fill:#ffffff;fill-opacity:1;stroke:#ffffff;stroke-width:2;stroke-miterlimit:4;stroke-opacity:1;stroke-dasharray:none" />
    <g
       id="g5303">
      <path
         style="opacity:0.5;fill:#e55529;fill-opacity:1;stroke:#e55529;stroke-width:0.390625;stroke-miterlimit:4;stroke-opacity:1;stroke-dasharray:none"
         d="m 635.46537,-341.91592 c -6.50632,0.248 -11.32208,6.0345 -13.52539,11.71875 -2.78743,6.17463 -2.28544,13.1753 -1.86277,19.75948 1.15497,6.31722 4.87167,13.44505 11.67722,14.83526 0.47518,1.61953 0.025,4.15717 0.14086,6.09108 -0.24227,20.45706 -1.45941,40.889 -1.81322,61.34056 0.25899,4.10507 5.16643,7.15794 8.94775,5.24902 3.03725,-1.12629 4.51725,-4.44156 4.02493,-7.53172 -0.49497,-21.63874 -2.03092,-43.2688 -1.80326,-64.91701 2.95739,-1.18343 6.38327,-2.7926 8.10547,-5.81055 4.87064,-7.30347 4.71512,-16.78415 3.06398,-25.04883 -1.74494,-7.95961 -7.78484,-16.66753 -16.95557,-15.68604 z"
         id="path5305"
         inkscape:connector-curvature="0" />
      <path
         style="opacity:0.5;fill:#e55529;fill-opacity:1;stroke:#ff470f;stroke-width:0.390625;stroke-miterlimit:4;stroke-opacity:1;stroke-dasharray:none"
         d="m 811.55183,-342.007 c -2.36614,0.45798 -4.52114,2.54969 -3.81225,5.13898 -0.25384,8.34947 0.14311,16.81845 -0.72876,25.09783 -0.9227,1.77179 -3.24598,-0.1125 -2.80762,-1.64795 -0.52182,-8.70238 0.40789,-17.47899 -0.31738,-26.14746 -1.24534,-2.89665 -5.89542,-3.02196 -7.97119,-0.93995 -1.40179,2.25371 -0.47596,5.24761 -0.86057,7.77584 -0.26911,6.95661 0.33435,14.06385 -0.42117,20.9351 -0.84202,1.79817 -3.47215,0.0772 -2.91593,-1.48921 -0.26528,-8.58361 0.23367,-17.24546 -0.55087,-25.7813 -0.42443,-3.59841 -5.90457,-3.72139 -7.66601,-1.15966 -1.54526,2.61915 -0.45627,5.96198 -0.76304,8.85005 0.30097,8.44 0.12051,16.9699 1.37339,25.32963 0.88445,4.5483 3.47083,9.31829 8.28857,10.47364 2.41522,0.18732 3.23669,1.47253 2.65338,3.88132 -0.17338,21.37039 -1.53746,42.71138 -1.84771,64.07523 0.56025,5.00645 7.83465,7.23328 11.03515,3.29589 2.9912,-1.77053 1.47835,-5.36482 1.71334,-8.16447 -0.54488,-20.77221 -1.6069,-41.52853 -1.94527,-62.30672 4.96842,-0.59112 9.3973,-4.1553 10.52246,-9.10645 2.30722,-9.71907 1.68859,-19.84924 1.9727,-29.78512 -0.19084,-2.63092 0.87409,-6.36607 -2.20463,-7.70266 -0.83351,-0.43174 -1.80184,-0.72171 -2.74659,-0.62256 z"
         id="path5307"
         inkscape:connector-curvature="0" />
      <g
         transform="translate(559.79843,-84.889664)"
         id="g5309"
         style="opacity:0.5">
        <path
           transform="matrix(4.5916781,0,0,1.5115459,-454.26684,236.45503)"
           d="m 143.75,-286.94531 c 0,17.36676 -4.63455,31.44531 -10.35156,31.44531 -5.71701,0 -10.35156,-14.07855 -10.35156,-31.44531 0,-17.36677 4.63455,-31.44531 10.35156,-31.44531 5.71701,0 10.35156,14.07854 10.35156,31.44531 z"
           sodipodi:ry="31.445312"
           sodipodi:rx="10.351562"
           sodipodi:cy="-286.94531"
           sodipodi:cx="133.39844"
           id="path5311"
           style="fill:#ffffff;fill-opacity:1;stroke:#e55529;stroke-width:6.4897809;stroke-miterlimit:4;stroke-opacity:1;stroke-dasharray:none"
           sodipodi:type="arc" />
        <path
           transform="matrix(3.0306313,0,0,3.3112455,-356.12279,747.04985)"
           d="m 181.25,-285.1875 c 0,5.82488 -5.15922,10.54688 -11.52344,10.54688 -6.36422,0 -11.52344,-4.722 -11.52344,-10.54688 0,-5.82488 5.15922,-10.54687 11.52344,-10.54687 6.36422,0 11.52344,4.72199 11.52344,10.54687 z"
           sodipodi:ry="10.546875"
           sodipodi:rx="11.523438"
           sodipodi:cy="-285.1875"
           sodipodi:cx="169.72656"
           id="path5313"
           style="fill:#e55529;fill-opacity:1;stroke:#e55529;stroke-width:1.49800003;stroke-miterlimit:4;stroke-opacity:1;stroke-dasharray:none"
           sodipodi:type="arc" />
      </g>
    </g>
  </g>
  <g
     id="g4596"
     inkscape:export-filename="/Users/minami/iosAppDevelop/MealReport/image/background.png"
     inkscape:export-xdpi="90"
     inkscape:export-ydpi="90">
    <rect
       y="-194.34761"
       x="-504.52148"
       height="453.45822"
       width="318.45822"
       id="rect5192"
       style="fill:#ffffff;fill-opacity:1;stroke:#ffffff;stroke-width:0.142;stroke-miterlimit:4;stroke-opacity:1;stroke-dasharray:none" />
    <g
       transform="translate(-45.284538,2.0947631)"
       id="g4558">
      <g
         id="g4211"
         transform="translate(-80.21027,4.424459)"
         style="opacity:0.5">
        <g
           transform="matrix(0.8,0,0,0.8,-360.31435,81.095932)"
           id="g5322"
           style="opacity:0.4">
          <rect
             ry="0"
             y="-352.90054"
             x="-23.837488"
             height="67.148758"
             width="123.96694"
             id="rect4796"
             style="opacity:0.5;fill:#ffffff;fill-opacity:1;stroke:#ffffff;stroke-width:1.03305781;stroke-miterlimit:4;stroke-opacity:1;stroke-dasharray:none" />
          <g
             id="g5048"
             transform="matrix(0.51652893,0,0,0.51652893,-332.79393,-173.57945)">
            <path
               style="opacity:0.5;fill:#e55529;fill-opacity:1;stroke:#e55529;stroke-width:0.390625;stroke-miterlimit:4;stroke-opacity:1;stroke-dasharray:none"
               d="m 635.46537,-341.91592 c -6.50632,0.248 -11.32208,6.0345 -13.52539,11.71875 -2.78743,6.17463 -2.28544,13.1753 -1.86277,19.75948 1.15497,6.31722 4.87167,13.44505 11.67722,14.83526 0.47518,1.61953 0.025,4.15717 0.14086,6.09108 -0.24227,20.45706 -1.45941,40.889 -1.81322,61.34056 0.25899,4.10507 5.16643,7.15794 8.94775,5.24902 3.03725,-1.12629 4.51725,-4.44156 4.02493,-7.53172 -0.49497,-21.63874 -2.03092,-43.2688 -1.80326,-64.91701 2.95739,-1.18343 6.38327,-2.7926 8.10547,-5.81055 4.87064,-7.30347 4.71512,-16.78415 3.06398,-25.04883 -1.74494,-7.95961 -7.78484,-16.66753 -16.95557,-15.68604 z"
               id="path4800"
               inkscape:connector-curvature="0" />
            <path
               style="opacity:0.5;fill:#e55529;fill-opacity:1;stroke:#ff470f;stroke-width:0.390625;stroke-miterlimit:4;stroke-opacity:1;stroke-dasharray:none"
               d="m 811.55183,-342.007 c -2.36614,0.45798 -4.52114,2.54969 -3.81225,5.13898 -0.25384,8.34947 0.14311,16.81845 -0.72876,25.09783 -0.9227,1.77179 -3.24598,-0.1125 -2.80762,-1.64795 -0.52182,-8.70238 0.40789,-17.47899 -0.31738,-26.14746 -1.24534,-2.89665 -5.89542,-3.02196 -7.97119,-0.93995 -1.40179,2.25371 -0.47596,5.24761 -0.86057,7.77584 -0.26911,6.95661 0.33435,14.06385 -0.42117,20.9351 -0.84202,1.79817 -3.47215,0.0772 -2.91593,-1.48921 -0.26528,-8.58361 0.23367,-17.24546 -0.55087,-25.7813 -0.42443,-3.59841 -5.90457,-3.72139 -7.66601,-1.15966 -1.54526,2.61915 -0.45627,5.96198 -0.76304,8.85005 0.30097,8.44 0.12051,16.9699 1.37339,25.32963 0.88445,4.5483 3.47083,9.31829 8.28857,10.47364 2.41522,0.18732 3.23669,1.47253 2.65338,3.88132 -0.17338,21.37039 -1.53746,42.71138 -1.84771,64.07523 0.56025,5.00645 7.83465,7.23328 11.03515,3.29589 2.9912,-1.77053 1.47835,-5.36482 1.71334,-8.16447 -0.54488,-20.77221 -1.6069,-41.52853 -1.94527,-62.30672 4.96842,-0.59112 9.3973,-4.1553 10.52246,-9.10645 2.30722,-9.71907 1.68859,-19.84924 1.9727,-29.78512 -0.19084,-2.63092 0.87409,-6.36607 -2.20463,-7.70266 -0.83351,-0.43174 -1.80184,-0.72171 -2.74659,-0.62256 z"
               id="path4802"
               inkscape:connector-curvature="0" />
            <g
               transform="translate(559.79843,-84.889664)"
               id="g4804"
               style="opacity:0.5">
              <path
                 transform="matrix(4.5916781,0,0,1.5115459,-454.26684,236.45503)"
                 d="m 143.75,-286.94531 c 0,17.36676 -4.63455,31.44531 -10.35156,31.44531 -5.71701,0 -10.35156,-14.07855 -10.35156,-31.44531 0,-17.36677 4.63455,-31.44531 10.35156,-31.44531 5.71701,0 10.35156,14.07854 10.35156,31.44531 z"
                 sodipodi:ry="31.445312"
                 sodipodi:rx="10.351562"
                 sodipodi:cy="-286.94531"
                 sodipodi:cx="133.39844"
                 id="path4806"
                 style="fill:#ffffff;fill-opacity:1;stroke:#e55529;stroke-width:6.4897809;stroke-miterlimit:4;stroke-opacity:1;stroke-dasharray:none"
                 sodipodi:type="arc" />
              <path
                 transform="matrix(3.0306313,0,0,3.3112455,-356.12279,747.04985)"
                 d="m 181.25,-285.1875 c 0,5.82488 -5.15922,10.54688 -11.52344,10.54688 -6.36422,0 -11.52344,-4.722 -11.52344,-10.54688 0,-5.82488 5.15922,-10.54687 11.52344,-10.54687 6.36422,0 11.52344,4.72199 11.52344,10.54687 z"
                 sodipodi:ry="10.546875"
                 sodipodi:rx="11.523438"
                 sodipodi:cy="-285.1875"
                 sodipodi:cx="169.72656"
                 id="path4808"
                 style="fill:#e55529;fill-opacity:1;stroke:#e55529;stroke-width:1.49800003;stroke-miterlimit:4;stroke-opacity:1;stroke-dasharray:none"
                 sodipodi:type="arc" />
            </g>
          </g>
        </g>
        <g
           transform="matrix(0.8,0,0,0.8,-313.10928,77.274936)"
           id="g5331"
           style="opacity:0.4">
          <rect
             style="opacity:0.5;fill:#ffffff;fill-opacity:1;stroke:#ffffff;stroke-width:1.03305781;stroke-miterlimit:4;stroke-opacity:1;stroke-dasharray:none"
             id="rect5228"
             width="123.96694"
             height="67.148758"
             x="54.656181"
             y="-348.1243"
             ry="0" />
          <g
             transform="matrix(0.51652893,0,0,0.51652893,-254.30026,-255.88264)"
             id="g5230">
            <path
               inkscape:connector-curvature="0"
               id="path5232"
               d="m 635.46537,-173.33016 c -6.50632,0.248 -11.32208,6.0345 -13.52539,11.71875 -2.78743,6.17463 -2.28544,13.1753 -1.86277,19.75948 1.15497,6.31722 4.87167,13.44505 11.67722,14.83526 0.47518,1.61953 0.025,4.15717 0.14086,6.09108 -0.24227,20.45706 -1.45941,40.889002 -1.81322,61.340562 0.25899,4.10507 5.16643,7.15794 8.94775,5.24902 3.03725,-1.12629 4.51725,-4.44156 4.02493,-7.53172 -0.49497,-21.63874 -2.03092,-43.268802 -1.80326,-64.917012 2.95739,-1.18343 6.38327,-2.7926 8.10547,-5.81055 4.87064,-7.30347 4.71512,-16.78415 3.06398,-25.04883 -1.74494,-7.95961 -7.78484,-16.66753 -16.95557,-15.68604 z"
               style="opacity:0.5;fill:#e59829;fill-opacity:1;stroke:#e59829;stroke-width:0.390625;stroke-miterlimit:4;stroke-opacity:1;stroke-dasharray:none" />
            <path
               inkscape:connector-curvature="0"
               id="path5234"
               d="m 811.55183,-173.42124 c -2.36614,0.45798 -4.52114,2.54969 -3.81225,5.13898 -0.25384,8.34947 0.14311,16.81845 -0.72876,25.09783 -0.9227,1.77179 -3.24598,-0.1125 -2.80762,-1.64795 -0.52182,-8.70238 0.40789,-17.47899 -0.31738,-26.14746 -1.24534,-2.89665 -5.89542,-3.02196 -7.97119,-0.93995 -1.40179,2.25371 -0.47596,5.24761 -0.86057,7.77584 -0.26911,6.95661 0.33435,14.06385 -0.42117,20.9351 -0.84202,1.79817 -3.47215,0.0772 -2.91593,-1.48921 -0.26528,-8.58361 0.23367,-17.24546 -0.55087,-25.7813 -0.42443,-3.59841 -5.90457,-3.72139 -7.66601,-1.15966 -1.54526,2.61915 -0.45627,5.96198 -0.76304,8.85005 0.30097,8.44 0.12051,16.9699 1.37339,25.32963 0.88445,4.5483 3.47083,9.31829 8.28857,10.47364 2.41522,0.18732 3.23669,1.47253 2.65338,3.88132 -0.17338,21.37039 -1.53746,42.711382 -1.84771,64.075232 0.56025,5.00645 7.83465,7.23328 11.03515,3.29589 2.9912,-1.77053 1.47835,-5.36482 1.71334,-8.16447 -0.54488,-20.77221 -1.6069,-41.528532 -1.94527,-62.306722 4.96842,-0.59112 9.3973,-4.1553 10.52246,-9.10645 2.30722,-9.71907 1.68859,-19.84924 1.9727,-29.78512 -0.19084,-2.63092 0.87409,-6.36607 -2.20463,-7.70266 -0.83351,-0.43174 -1.80184,-0.72171 -2.74659,-0.62256 z"
               style="opacity:0.5;fill:#e59829;fill-opacity:1;stroke:#ff9c0f;stroke-width:0.390625;stroke-miterlimit:4;stroke-opacity:1;stroke-dasharray:none" />
            <g
               style="opacity:0.5"
               id="g5236"
               transform="translate(-7.7936781,-10.902588)">
              <path
                 sodipodi:type="arc"
                 style="fill:#ffffff;fill-opacity:1;stroke:#e59829;stroke-width:6.4897809;stroke-miterlimit:4;stroke-opacity:1;stroke-dasharray:none"
                 id="path5238"
                 sodipodi:cx="133.39844"
                 sodipodi:cy="-286.94531"
                 sodipodi:rx="10.351562"
                 sodipodi:ry="31.445312"
                 d="m 143.75,-286.94531 c 0,17.36676 -4.63455,31.44531 -10.35156,31.44531 -5.71701,0 -10.35156,-14.07855 -10.35156,-31.44531 0,-17.36677 4.63455,-31.44531 10.35156,-31.44531 5.71701,0 10.35156,14.07854 10.35156,31.44531 z"
                 transform="matrix(4.5916781,0,0,1.5115459,113.32527,331.05372)" />
              <path
                 sodipodi:type="arc"
                 style="fill:#e59829;fill-opacity:1;stroke:#e59829;stroke-width:1.49800003;stroke-miterlimit:4;stroke-opacity:1;stroke-dasharray:none"
                 id="path5240"
                 sodipodi:cx="169.72656"
                 sodipodi:cy="-285.1875"
                 sodipodi:rx="11.523438"
                 sodipodi:ry="10.546875"
                 d="m 181.25,-285.1875 c 0,5.82488 -5.15922,10.54688 -11.52344,10.54688 -6.36422,0 -11.52344,-4.722 -11.52344,-10.54688 0,-5.82488 5.15922,-10.54687 11.52344,-10.54687 6.36422,0 11.52344,4.72199 11.52344,10.54687 z"
                 transform="matrix(3.0306313,0,0,3.3112455,211.46932,841.64854)" />
            </g>
          </g>
        </g>
        <g
           transform="matrix(0.8,0,0,0.8,-411.90929,51.688852)"
           id="g5347"
           style="opacity:0.4">
          <rect
             style="opacity:0.5;fill:#ffffff;fill-opacity:1;stroke:#ffffff;stroke-width:1.03305781;stroke-miterlimit:4;stroke-opacity:1;stroke-dasharray:none"
             id="rect5262"
             width="123.96694"
             height="67.148758"
             x="315.65619"
             y="-316.14169"
             ry="0" />
          <g
             id="g5264"
             transform="matrix(0.51652893,0,0,0.51652893,6.69975,-310.97946)">
            <path
               inkscape:connector-curvature="0"
               id="path5266"
               d="m 635.46537,-4.74438 c -6.50632,0.248 -11.32208,6.0345 -13.52539,11.71875 -2.78743,6.17463 -2.28544,13.1753 -1.86277,19.75948 1.15497,6.31722 4.87167,13.44505 11.67722,14.83526 0.47518,1.61953 0.025,4.15717 0.14086,6.09108 -0.24227,20.45706 -1.45941,40.889 -1.81322,61.34056 0.25899,4.10507 5.16643,7.15794 8.94776,5.24902 3.03724,-1.12629 4.51725,-4.44156 4.02493,-7.53172 -0.49498,-21.63874 -2.03092,-43.2688 -1.80326,-64.91701 2.95739,-1.18343 6.38326,-2.7926 8.10546,-5.81055 4.87064,-7.30347 4.71512,-16.78415 3.06398,-25.04883 C 650.676,2.98205 644.6361,-5.72587 635.46537,-4.74438 z"
               style="opacity:0.5;fill:#293fe5;fill-opacity:1;stroke:#293fe5;stroke-width:0.390625;stroke-miterlimit:4;stroke-opacity:1;stroke-dasharray:none" />
            <path
               inkscape:connector-curvature="0"
               id="path5268"
               d="m 811.55183,-4.83546 c -2.36614,0.45798 -4.52114,2.54969 -3.81225,5.13898 -0.25384,8.34947 0.14311,16.81845 -0.72876,25.09783 -0.9227,1.77179 -3.24598,-0.1125 -2.80762,-1.64795 -0.52182,-8.70238 0.40789,-17.47899 -0.31738,-26.14746 -1.24534,-2.89665 -5.89542,-3.02196 -7.97119,-0.93995 -1.40179,2.25371 -0.47596,5.24761 -0.86057,7.77584 -0.26911,6.95661 0.33435,14.06385 -0.42117,20.9351 -0.84202,1.79817 -3.47215,0.0772 -2.91593,-1.48921 -0.26528,-8.58361 0.23367,-17.24546 -0.55087,-25.7813 -0.42443,-3.59841 -5.90457,-3.72139 -7.66601,-1.15966 -1.54526,2.61915 -0.45627,5.96198 -0.76304,8.85005 0.30097,8.44 0.12051,16.9699 1.37339,25.32963 0.88445,4.5483 3.47083,9.31829 8.28857,10.47364 2.41522,0.18732 3.23669,1.47253 2.65338,3.88132 -0.17338,21.37039 -1.53746,42.71138 -1.84771,64.07523 0.56025,5.00645 7.83465,7.23328 11.03515,3.29589 2.9912,-1.77053 1.47835,-5.36482 1.71334,-8.16447 -0.54488,-20.77221 -1.6069,-41.52853 -1.94527,-62.30672 4.96842,-0.59112 9.3973,-4.1553 10.52246,-9.10645 2.30722,-9.71907 1.68859,-19.84924 1.9727,-29.78512 -0.19084,-2.63092 0.87409,-6.36607 -2.20463,-7.70266 -0.83351,-0.43174 -1.80184,-0.72171 -2.74659,-0.62256 z"
               style="opacity:0.5;fill:#293fe5;fill-opacity:1;stroke:#0f2bff;stroke-width:0.390625;stroke-miterlimit:4;stroke-opacity:1;stroke-dasharray:none" />
            <g
               style="opacity:0.5"
               id="g5270"
               transform="translate(551.20277,327.71402)">
              <path
                 sodipodi:type="arc"
                 style="fill:#ffffff;fill-opacity:1;stroke:#293fe5;stroke-width:6.4897809;stroke-miterlimit:4;stroke-opacity:1;stroke-dasharray:none"
                 id="path5272"
                 sodipodi:cx="133.39844"
                 sodipodi:cy="-286.94531"
                 sodipodi:rx="10.351562"
                 sodipodi:ry="31.445312"
                 d="m 143.75,-286.94531 c 0,17.36676 -4.63455,31.44531 -10.35156,31.44531 -5.71701,0 -10.35156,-14.07855 -10.35156,-31.44531 0,-17.36677 4.63455,-31.44531 10.35156,-31.44531 5.71701,0 10.35156,14.07854 10.35156,31.44531 z"
                 transform="matrix(4.5916781,0,0,1.5115459,-445.67118,161.02289)" />
              <path
                 sodipodi:type="arc"
                 style="fill:#293fe5;fill-opacity:1;stroke:#293fe5;stroke-width:1.49800003;stroke-miterlimit:4;stroke-opacity:1;stroke-dasharray:none"
                 id="path5274"
                 sodipodi:cx="169.72656"
                 sodipodi:cy="-285.1875"
                 sodipodi:rx="11.523438"
                 sodipodi:ry="10.546875"
                 d="m 181.25,-285.1875 c 0,5.82488 -5.15922,10.54688 -11.52344,10.54688 -6.36422,0 -11.52344,-4.722 -11.52344,-10.54688 0,-5.82488 5.15922,-10.54687 11.52344,-10.54687 6.36422,0 11.52344,4.72199 11.52344,10.54687 z"
                 transform="matrix(3.0306313,0,0,3.3112455,-347.52713,671.61771)" />
            </g>
          </g>
        </g>
      </g>
      <g
         id="g4242"
         transform="translate(-80.21028,16.294225)"
         style="opacity:0.5">
        <use
           height="32"
           width="230"
           transform="translate(220,148.31205)"
           id="use4199"
           xlink:href="#g5322"
           y="0"
           x="0" />
        <use
           height="32"
           width="230"
           transform="translate(-110,148.31205)"
           id="use4203"
           xlink:href="#g5331"
           y="0"
           x="0" />
        <use
           height="32"
           width="230"
           transform="translate(-110,148.31205)"
           id="use4207"
           xlink:href="#g5347"
           y="0"
           x="0" />
      </g>
      <g
         id="g4237"
         transform="translate(-80.21027,-8.3833873)"
         style="opacity:0.5">
        <use
           height="32"
           width="230"
           transform="translate(-110,-55.413294)"
           id="use4201"
           xlink:href="#use4199"
           y="0"
           x="0" />
        <use
           height="32"
           width="230"
           transform="translate(220,-55.413297)"
           id="use4205"
           xlink:href="#use4203"
           y="0"
           x="0" />
        <use
           height="32"
           width="230"
           transform="translate(-110,-55.413292)"
           id="use4209"
           xlink:href="#use4207"
           y="0"
           x="0" />
      </g>
      <use
         x="0"
         y="0"
         xlink:href="#g4211"
         id="use4247"
         transform="translate(0,240.27273)"
         width="230"
         height="32" />
      <use
         x="0"
         y="0"
         xlink:href="#g4237"
         id="use4249"
         transform="translate(1.1425783e-8,240.27272)"
         width="230"
         height="32" />
      <use
         x="0"
         y="0"
         xlink:href="#g4242"
         id="use4251"
         transform="translate(-5.6079101e-6,240.27273)"
         width="230"
         height="32" />
    </g>
  </g>
  <g
     id="g4659"
     transform="matrix(0.65217391,0,0,0.65217391,37.956522,68.956522)">
    <path
       sodipodi:nodetypes="ccccc"
       inkscape:connector-curvature="0"
       id="path4648"
       d="m 90,147 c 5,0 9.966501,4.88275 10,10 l -30,30 c 0,-5 -5,-10 -10,-10 z"
       style="fill:none;stroke:#000000;stroke-width:1px;stroke-linecap:butt;stroke-linejoin:round;stroke-opacity:1" />
    <path
       sodipodi:nodetypes="cccc"
       inkscape:connector-curvature="0"
       id="path4651"
       d="m 60,177 -5,15 15,-5 c 0,-5 -5,-10 -10,-10 z"
       style="fill:none;stroke:#000000;stroke-width:1px;stroke-linecap:butt;stroke-linejoin:round;stroke-opacity:1" />
    <path
       inkscape:connector-curvature="0"
       id="path4655"
       d="m 57,186 4,4 -6,2 z"
       style="fill:#000000;fill-opacity:1;stroke:#000000;stroke-width:1px;stroke-linecap:butt;stroke-linejoin:miter;stroke-opacity:1" />
  </g>
  <rect
     ry="4.2978177"
     y="9.699379"
     x="318.46909"
     height="42.118618"
     width="197.11861"
     id="rect3089"
     style="fill:#e59829;fill-opacity:1;stroke:#e59829;stroke-width:2.88138247;stroke-miterlimit:4;stroke-opacity:1;stroke-dasharray:none" />
  <rect
     transform="matrix(0.70189243,0.71228296,-0.71228296,0.70189243,0,0)"
     ry="0"
     y="-338.51266"
     x="366.50446"
     height="1.7593048"
     width="10.283518"
     id="rect3093"
     style="fill:#ffffff;fill-opacity:1;stroke:#ffffff;stroke-width:0.21053506;stroke-miterlimit:4;stroke-opacity:1;stroke-dasharray:none" />
  <rect
     style="fill:#e59829;fill-opacity:0.94117647;stroke:#e59829;stroke-width:0.21053506;stroke-miterlimit:4;stroke-opacity:1;stroke-dasharray:none"
     id="use3095"
     width="10.283518"
     height="1.7593048"
     x="322.68668"
     y="-381.69122"
     ry="0"
     transform="matrix(0.70189243,-0.71228296,-0.71228296,-0.70189243,0,0)" />
  <rect
     ry="13.580238"
     y="-101.44696"
     x="-440"
     height="28.44696"
     width="98.327538"
     id="rect3915"
     style="opacity:0.3;fill:#e59829;fill-opacity:1;stroke:#e59829;stroke-width:1.67245924;stroke-miterlimit:4;stroke-opacity:1;stroke-dasharray:none"
     transform="scale(-1,1)"
     inkscape:export-filename="/Users/minami/iosAppDevelop/MealReport/image/orange_window.png"
     inkscape:export-xdpi="89.626556"
     inkscape:export-ydpi="89.626556" />
  <g
     id="use3983"
     transform="matrix(-1,0,0,1,915.4111,43.708954)"
     inkscape:export-filename="/Users/minami/iosAppDevelop/MealReport/image/rightArrowWindow.png"
     inkscape:export-xdpi="90.000038"
     inkscape:export-ydpi="90.000038">
    <rect
       ry="13.708636"
       y="-146.70895"
       x="-449.70935"
       height="28.715919"
       width="68.596497"
       id="rect3989"
       style="opacity:0.3;fill:#e59829;fill-opacity:1;stroke:#e59829;stroke-width:1.40349984;stroke-miterlimit:4;stroke-opacity:1;stroke-dasharray:none"
       transform="scale(-1,1)" />
    <g
       style="fill:#ffffff;fill-opacity:1;stroke:#ffffff;stroke-opacity:1"
       transform="matrix(-0.31850334,0,0,0.3598385,543.19426,-133.3525)"
       id="g3991">
      <rect
         style="fill:#ffffff;fill-opacity:1;stroke:#ffffff;stroke-width:0.51182646;stroke-miterlimit:4;stroke-opacity:1;stroke-dasharray:none"
         id="rect3993"
         width="25"
         height="4.2770014"
         x="320.52084"
         y="-346.59604"
         ry="0"
         transform="matrix(0.70189242,0.71228297,-0.71228297,0.70189242,0,0)" />
      <rect
         transform="matrix(0.70189242,-0.71228297,-0.71228297,-0.70189242,0,0)"
         ry="0"
         y="-350.50308"
         x="316.55597"
         height="4.2770014"
         width="25"
         id="rect3995"
         style="fill:#ffffff;fill-opacity:1;stroke:#ffffff;stroke-width:0.51182646;stroke-miterlimit:4;stroke-opacity:1;stroke-dasharray:none" />
    </g>
  </g>
  <g
     id="use3985"
     transform="translate(84.588897,3.7089539)"
     inkscape:export-filename="/Users/minami/iosAppDevelop/MealReport/image/leftArrowWindow.png"
     inkscape:export-xdpi="89.626556"
     inkscape:export-ydpi="89.626556">
    <rect
       ry="13.708636"
       y="-146.70895"
       x="-449.70935"
       height="28.715919"
       width="68.596497"
       id="rect3999"
       style="opacity:0.3;fill:#e59829;fill-opacity:1;stroke:#e59829;stroke-width:1.40349984;stroke-miterlimit:4;stroke-opacity:1;stroke-dasharray:none"
       transform="scale(-1,1)" />
    <g
       style="fill:#ffffff;fill-opacity:1;stroke:#ffffff;stroke-opacity:1"
       transform="matrix(-0.31850334,0,0,0.3598385,543.19426,-133.3525)"
       id="g4001">
      <rect
         style="fill:#ffffff;fill-opacity:1;stroke:#ffffff;stroke-width:0.51182646;stroke-miterlimit:4;stroke-opacity:1;stroke-dasharray:none"
         id="rect4003"
         width="25"
         height="4.2770014"
         x="320.52084"
         y="-346.59604"
         ry="0"
         transform="matrix(0.70189242,0.71228297,-0.71228297,0.70189242,0,0)" />
      <rect
         transform="matrix(0.70189242,-0.71228297,-0.71228297,-0.70189242,0,0)"
         ry="0"
         y="-350.50308"
         x="316.55597"
         height="4.2770014"
         width="25"
         id="rect4005"
         style="fill:#ffffff;fill-opacity:1;stroke:#ffffff;stroke-width:0.51182646;stroke-miterlimit:4;stroke-opacity:1;stroke-dasharray:none" />
    </g>
  </g>
  <path
     sodipodi:type="arc"
     style="fill:#deb887;fill-opacity:1;stroke:#deb887;stroke-width:3;stroke-miterlimit:4;stroke-opacity:1;stroke-dasharray:none"
     id="path3094"
     sodipodi:cx="970"
     sodipodi:cy="-148"
     sodipodi:rx="60"
     sodipodi:ry="60"
     d="m 1030,-148 a 60,60 0 1 1 -120,0 60,60 0 1 1 120,0 z"
     transform="matrix(0.81300813,0,0,0.81300813,171.38211,-26.455285)"
     inkscape:export-filename="/Users/minami/iosAppDevelop/MealReport/image/day_mark.png"
     inkscape:export-xdpi="90"
     inkscape:export-ydpi="90" />
  <g
     id="g3953"
     inkscape:export-filename="/Users/minami/iosAppDevelop/MealReport/image/lunch_mark.png"
     inkscape:export-xdpi="90"
     inkscape:export-ydpi="90">
    <path
       transform="matrix(0.88495575,0,0,0.88495575,124.86726,8.283186)"
       d="m 1010,17 a 55,55 0 1 1 -110,0 55,55 0 1 1 110,0 z"
       sodipodi:ry="55"
       sodipodi:rx="55"
       sodipodi:cy="17"
       sodipodi:cx="955"
       id="path3901"
       style="fill:#eeba70;fill-opacity:0.98039216;stroke:#eeba70;stroke-width:3;stroke-miterlimit:4;stroke-opacity:0.98039216;stroke-dasharray:none"
       sodipodi:type="arc" />
    <text
       sodipodi:linespacing="125%"
       id="text3939"
       y="43.475895"
       x="943.46234"
       style="font-size:53.02227020000000124px;font-style:normal;font-weight:normal;line-height:125%;letter-spacing:0px;word-spacing:0px;fill:#ffffff;fill-opacity:1;stroke:none;font-family:Times New Roman;-inkscape-font-specification:Times New Roman"
       xml:space="preserve"><tspan
         y="43.475895"
         x="943.46234"
         id="tspan3941"
         sodipodi:role="line">昼</tspan></text>
  </g>
  <g
     id="g3958"
     inkscape:export-filename="/Users/minami/iosAppDevelop/MealReport/image/dinner_mark.png"
     inkscape:export-xdpi="300"
     inkscape:export-ydpi="300">
    <path
       transform="matrix(0.8111199,0,0,0.97334388,184.98135,6.0848585)"
       d="m 1050,172 a 60,50 0 1 1 -120,0 60,50 0 1 1 120,0 z"
       sodipodi:ry="50"
       sodipodi:rx="60"
       sodipodi:cy="172"
       sodipodi:cx="990"
       id="path3911"
       style="fill:#7f8cef;fill-opacity:1;stroke:#7f8cef;stroke-width:3.00043678;stroke-miterlimit:4;stroke-opacity:1;stroke-dasharray:none"
       sodipodi:type="arc" />
    <text
       sodipodi:linespacing="125%"
       id="text3943"
       y="193.85564"
       x="961.71619"
       style="font-size:53.07855605999999682px;font-style:normal;font-weight:normal;line-height:125%;letter-spacing:0px;word-spacing:0px;fill:#ffffff;fill-opacity:1;stroke:none;font-family:Times New Roman;-inkscape-font-specification:Times New Roman"
       xml:space="preserve"><tspan
         y="193.85564"
         x="961.71619"
         id="tspan3945"
         sodipodi:role="line">夜</tspan></text>
  </g>
  <g
     inkscape:export-ydpi="300"
     inkscape:export-xdpi="300"
     inkscape:export-filename="/Users/minami/iosAppDevelop/MealReport/image/breakfast_mark.png"
     id="use3967"
     transform="translate(-113.0769,-72.684441)">
    <path
       sodipodi:type="arc"
       style="fill:#eea470;fill-opacity:0.98039216;stroke:#eea470;stroke-width:3;stroke-miterlimit:4;stroke-opacity:0.98039216;stroke-dasharray:none"
       id="path3971"
       sodipodi:cx="970"
       sodipodi:cy="-148"
       sodipodi:rx="60"
       sodipodi:ry="60"
       d="m 1030,-148 c 0,33.13708 -26.8629,60 -60,60 -33.13708,0 -60,-26.86292 -60,-60 0,-33.13708 26.86292,-60 60,-60 33.1371,0 60,26.86292 60,60 z"
       transform="matrix(0.81300813,0,0,0.81300813,171.38211,-26.455285)" />
    <text
       xml:space="preserve"
       style="font-size:56.56108475px;font-style:normal;font-weight:normal;line-height:125%;letter-spacing:0px;word-spacing:0px;fill:#ffffff;fill-opacity:1;stroke:none;font-family:Times New Roman;-inkscape-font-specification:Times New Roman"
       x="933.0769"
       y="-125.31556"
       id="text3973"
       sodipodi:linespacing="125%"><tspan
         sodipodi:role="line"
         id="tspan3975"
         x="933.0769"
         y="-125.31556">朝</tspan><tspan
         sodipodi:role="line"
         x="933.0769"
         y="-54.614204"
         id="tspan3977" /></text>
  </g>
</svg>
